<?xml version="1.0" encoding="UTF-8"?> <!-- Creator: CorelDRAW 2018 (64-Bit) --> <svg xmlns="http://www.w3.org/2000/svg" xmlns:xlink="http://www.w3.org/1999/xlink" xml:space="preserve" width="67.674mm" height="21.5652mm" style="shape-rendering:geometricPrecision; text-rendering:geometricPrecision; image-rendering:optimizeQuality; fill-rule:evenodd; clip-rule:evenodd" viewBox="0 0 6767.4 2156.52"> <defs> <style type="text/css"> <![CDATA[ .fil0 {fill:black} .fil2 {fill:#FDFDFD} .fil1 {fill:#FEFEFE} ]]> </style> </defs> <g id="Слой_x0020_1"> <metadata id="CorelCorpID_0Corel-Layer"></metadata> <g id="_2438383347152"> <path class="fil0" d="M1297.6 0.01l4172.2 0c716.52,-0.01 1297.6,482.84 1297.6,1078.25l0 0c0,595.41 -581.08,1078.25 -1297.6,1078.25l-4172.2 0.01c-716.52,-0.01 -1297.6,-482.85 -1297.6,-1078.26l0 0c0,-595.41 581.08,-1078.26 1297.6,-1078.26z"></path> <path class="fil1" d="M1346.01 64.6l4075.38 0c699.9,0 1267.49,453.93 1267.49,1013.66l0 0c0,559.73 -567.59,1013.65 -1267.49,1013.65l-4075.38 0.01c-699.9,-0.01 -1267.49,-453.93 -1267.49,-1013.66l0 0c0,-559.73 567.59,-1013.66 1267.49,-1013.66zm-40.17 257.69l4155.72 0c550.82,0 997.52,338.53 997.52,755.97l0 0c0,417.44 -446.7,755.97 -997.52,755.97l-4155.72 0c-550.82,0 -997.52,-338.53 -997.52,-755.97l0 0c0,-417.44 446.7,-755.97 997.52,-755.97z"></path> <path class="fil1" d="M1146.06 1319.26l-4.12 -512.93c130.82,-0.81 102.33,73.85 102.3,258.31 -0.02,200.93 26.81,256.42 -98.18,254.62zm-317.28 -703.17l-3.03 147.07c12.86,18.73 -2.46,-2.98 11.84,12.13 37.34,39.48 26.4,78.91 26.35,149.64 -0.05,59.26 8.05,366.87 -9.92,399.84 -23.69,43.48 -28.92,3.91 -28.53,77.75 0.19,35.67 0.5,71.19 0.32,106.9 117.9,0.59 463.13,14.7 550.42,-21.63 178.08,-74.14 142.02,-237.9 141.96,-430.5 -0.07,-200.98 35.05,-362.13 -146.34,-425.21 -66.63,-23.18 -464.71,-28.24 -543.07,-15.99z"></path> <path class="fil1" d="M4583.08 1108.76c-0.11,-93.69 16.69,-98.27 104.32,-84.82l-2.09 298.07c-34.28,20.27 -44.88,17.18 -80.69,9.04 -30.51,-59.35 -21.43,-144.31 -21.54,-222.29zm102.56 370.42c2.04,49.54 9.29,106.37 -26.31,133.18 -22.32,7.85 -42.46,8.54 -59.21,-10.38 -54.59,-61.75 87.83,-59.97 -239.32,-59.15l-0.38 161.63c140.08,85.28 505.02,148.01 558.13,-85.53 29.87,-131.34 -2.08,-517.35 12.19,-583.42 16.12,-74.62 25.88,57.08 25.94,-187.96l-253.23 0.13c-9.53,11.67 -3.48,1.64 -10.06,18.01 -1.77,4.4 -2.98,13.33 -4.65,18.83 -75.02,-33.04 -187.65,-75.34 -277.57,-9.11 -80.01,58.94 -70.2,179.2 -70.18,292.18 0.02,157.7 -29.25,345.9 185.88,350.41 82.88,1.74 95.81,-16.17 158.77,-38.82z"></path> <path class="fil1" d="M5033.1 764.13c20.13,0.66 3.58,-8.77 17.45,10.43 25.39,53.75 20.17,535.28 7.48,562.77 -19.12,41.42 -24.79,1.01 -24.77,72.46 0.01,32.51 -3.04,68.44 4.39,99.5l294.96 -0.16c30.7,-116.82 -23.81,-160.41 -23.86,-223.56l1.88 -240.94c12.59,-54.94 78.72,-9.73 86.98,34.56 6.19,33.19 2.01,109.53 2.01,147.23 0,78.67 -5.38,210.26 14.07,282.36l255.57 0.12c29.32,-160.39 -33.04,-140.47 -26.53,-238.27 5.29,-79.13 5.58,-192.72 1.56,-272.36 -9.55,-189.43 -195.05,-187.66 -334.9,-119.89l-0.31 -266 -274.73 0.46 -1.25 151.29z"></path> <path class="fil1" d="M2273.12 1509.23c98.2,0.96 597.71,-12.04 645.86,5.21l0.74 -436.65 -238.9 -2.02c-5.74,55.8 2.19,112.13 -2.4,165.81 -5.76,67.32 -29.46,81.88 -96.15,76.49 -12.56,-87.26 -2.56,-266.77 -2.43,-363.73 0.07,-54.85 -16.66,-125.31 14.4,-168.02 28.07,-38.61 19.3,-120.94 13.17,-170.23l-333.37 -1.92c-10.7,32.49 -5.26,77.24 -5.28,112.69 -0.02,77.97 19.43,34.51 30.45,88.24l0.41 484.4c-8.52,56.42 -29.09,31.92 -31.13,88.03 -1.27,35 -3.65,89.51 4.63,121.7z"></path> <path class="fil1" d="M3897.42 850.75l-260.24 -0.61c-14.2,260.84 29.01,40.99 29.01,317.45 0,40.66 8.03,142.81 -9.38,172.68 -21.37,36.66 -23.26,3.34 -23.08,69.58 0.09,33.29 0.62,66.25 0.18,99.63l303.31 -0.32c-0.52,-33.47 3.61,-101.26 -0.59,-127.87 -9.92,-62.81 -27.42,37.83 -27.39,-228.41 0,-25.01 -5.85,-113.25 8.77,-125.89 103.5,-52.66 82.45,135.84 82.45,199.43 -0.02,99.63 6.65,186.28 11.52,282.51l260.79 0.46 -2.24 -154.29c-16.52,-2.73 -19.89,-4.88 -24.5,-32.78 -10.84,-65.82 17.03,-306.95 -17.01,-393.59 -20.79,-52.93 -68.97,-88.73 -142.92,-95.02 -79.77,-6.79 -130.6,31.91 -185.82,54.23l-2.86 -37.19z"></path> <path class="fil1" d="M1832.61 1087.34c1.3,-49.11 -0.17,-95.99 54.38,-92.28 45.54,3.1 46.71,47.66 46.4,92.68l-24.2 0.1 -76.58 -0.5zm-161.73 394.92c87.77,39.07 166.83,50.98 274.8,37.96 73.26,-8.84 191.51,-34.26 222.67,-87.91l-0.35 -152.73 -238.99 -0.96c-2.41,82.96 0.02,104.4 -80.09,87.75 -21.42,-43.93 -16.57,-70.86 -16.81,-128.06l333.45 0.35c6.95,-44.18 4.9,-163.69 0.49,-210.36 -6.52,-68.71 -28.52,-110.56 -71.42,-141.49 -74.38,-53.64 -278.17,-55.03 -370.48,-28.38 -130.37,37.64 -133.68,145.96 -133.65,287.1 0.01,61 -5,148.84 3.34,205.81 11.71,80 39.14,90.58 77.04,130.92z"></path> <path class="fil1" d="M3228.37 1079.35c0.14,-119.91 92.04,-113.46 92.01,-7.35 -0.05,227.3 28.77,310.01 -75.13,287.09 -28.55,-54.64 -16.82,-206.46 -16.88,-279.74zm-238.55 272.07c28.1,213.64 338.89,187.12 442.85,155.53 85.38,-25.95 123.67,-80.1 130.53,-184.61 5.08,-77.54 6.69,-232.67 -1.92,-308.02 -10.79,-94.43 -60.73,-144.85 -152.81,-161.2 -163.24,-29 -411.3,-32.21 -422.31,189.88 -4.02,81.27 -6.61,230.32 3.66,308.42z"></path> <path class="fil1" d="M5737.4 1508.48l298.91 0.26c25.04,-180.05 -26.9,-132.62 -28.63,-216.01l0.56 -445.05 -274.23 0.18c1.47,95.17 -12.11,119 16.39,162.47 24.1,36.75 28.41,299.7 1,337.44 -25.36,34.93 -23.22,112.77 -14,160.71z"></path> <path class="fil1" d="M5841.2 608.55c-155.79,31.46 -116.52,230.79 77.37,193.86 58.9,-11.23 115.9,-64.32 80.91,-136.7 -20.77,-42.97 -96.94,-69.55 -158.28,-57.16z"></path> <polygon class="fil2" points="1632.17,766.19 2157.01,766.77 2161.03,699.05 1633.01,699.57 "></polygon> </g> </g> </svg> 