<?xml version="1.0" encoding="UTF-8"?> <!-- Creator: CorelDRAW 2018 (64-Bit) --> <svg xmlns="http://www.w3.org/2000/svg" xmlns:xlink="http://www.w3.org/1999/xlink" xml:space="preserve" width="54.6306mm" height="21.6931mm" style="shape-rendering:geometricPrecision; text-rendering:geometricPrecision; image-rendering:optimizeQuality; fill-rule:evenodd; clip-rule:evenodd" viewBox="0 0 5351.45 2124.99"> <defs> <style type="text/css"> <![CDATA[ .str0 {stroke:#FEFEFE;stroke-width:19.59;stroke-miterlimit:22.9256} .fil5 {fill:none} .fil0 {fill:black} .fil3 {fill:#FBFBFB} .fil2 {fill:#FBFEFD} .fil1 {fill:#FCFCFC} .fil4 {fill:#FDFDFD} .fil6 {fill:#FEFEFE} ]]> </style> </defs> <g id="Слой_x0020_1"> <metadata id="CorelCorpID_0Corel-Layer"></metadata> <g id="_2438383313712"> <path class="fil0" d="M4276.58 388.92l163.71 0.12 4.22 621.88 -171.54 3.16c-8.39,-69.02 -10.24,-578.58 3.61,-625.16zm-418.32 1.2l166.89 -1.25 5.12 477.36 208.39 0.69 -0.86 145.6 -377.6 0.93 -1.94 -623.33zm-219.15 -0.72l168.78 -0.82 5.07 623.79 -171.94 1.05 -1.91 -624.02zm1484.3 379.41c-30.93,158.94 -189.88,291.83 -393.55,253.61 -425.36,-79.83 -304.22,-734.26 143.06,-638.57 155.99,33.36 288.62,188.97 250.5,384.96zm-3363.15 0l137.25 191.56c30.07,-87.99 168.37,-524.94 203.1,-570.09l208.62 -0.99 219.62 612.45 1.81 -611.82 167.64 -1.07c47.93,57.34 197.31,349.27 229.2,366.51l1.08 -365.79 162.01 -0.05 0.17 623.07 -167.65 1.1c-56.5,-73.11 -176.08,-329.03 -226.02,-365.94l-2.06 366.4 -341.29 -1.1 -33.71 -110.53 -235.62 -0.48 -37.09 110.26c-428.75,2.06 -260.49,60.46 -456.96,-228.98l-3.43 231.15 -155.98 -0.91 -3.6 -623.49c202.48,-8.42 524.92,-26.68 456.48,252.36 -7.96,32.46 -25.65,58.83 -42.62,75.08l-80.97 51.3zm1832.82 42.67l2.13 175.25c-121.37,94.8 -472.85,46.57 -477.77,-277.18 -3.88,-255.9 228.91,-409.99 476.57,-295.84l1.23 176.21c-54.86,-26.7 -95.32,-89.26 -202.39,-54.71 -61.15,19.74 -107.77,92.95 -105.57,174.12 2.16,80.06 48.75,140.4 108.77,160.72 102.16,34.62 139.9,-25.22 197.02,-58.58zm-2987.1 -318.29c33.57,-319.65 353.44,-348.63 497.79,-203.67 69.28,69.56 114.53,200.91 59.45,324.28 -40.72,91.23 -157.27,186.42 -180.21,254.07 78.47,101.41 204.63,162.23 202.26,247.72 -1.36,49.22 -31.31,77.45 -75.9,80.64 -78.54,5.58 -230.54,-202.87 -316.52,-272.5l-14.31 -10.49c-51.57,483.15 -719.02,280.69 -560.66,-115.42 37.82,-94.63 129.46,-170.64 183.08,-256.85 -46.77,-91.32 -207.37,-166.2 -202.93,-256.8 2.25,-45.96 35.23,-75.78 80.61,-77.62 72,-2.92 240.07,207.47 327.33,286.65zm-446.67 -480.26c-126.16,33.96 -159.85,112.55 -159.31,260.56l0.05 842.03c-0.22,135.15 19.55,249.17 147.98,277.87 84.07,18.78 4159.4,5.71 4627.25,5.71 675.58,0 568.7,127.22 571.56,-1105.8 0.35,-152.8 -17.81,-240.53 -143.99,-278.61 -67.95,-20.49 -1479.28,-8.36 -1675.76,-8.36l-2526.08 0c-146.08,0 -750.62,-17.94 -841.71,6.59z"></path> <path class="fil1" d="M2199.68 520.22c19.43,28.18 33.29,89.24 44.28,124.97 13.31,43.31 29.61,89.57 38.89,135.17l-164.25 -1.61 81.09 -258.54zm-611.53 3.83c76.04,-8.51 137.96,4.55 134.84,85.83 -2.59,67 -62.46,79.69 -134.02,74.07l-0.81 -159.9zm253.08 193.46c16.98,-16.25 34.66,-42.62 42.62,-75.08 68.44,-279.04 -254,-260.78 -456.48,-252.36l3.6 623.49 155.98 0.91 3.43 -231.15c196.47,289.44 28.21,231.04 456.96,228.98l37.09 -110.26 235.62 0.48 33.71 110.53 341.29 1.1 2.06 -366.4c49.94,36.91 169.51,292.83 226.02,365.94l167.65 -1.1 -0.17 -623.07 -162.01 0.05 -1.08 365.79c-31.88,-17.24 -181.27,-309.16 -229.2,-366.51l-167.64 1.07 -1.81 611.82 -219.62 -612.45 -208.62 0.99c-34.74,45.15 -173.03,482.1 -203.1,570.09l-137.25 -191.56 80.97 -51.3z"></path> <path class="fil2" d="M607.17 838.14c0,94.55 -5.03,175.65 -103.87,185.13 -81.01,7.78 -143.22,-52.26 -133.56,-133.01 5.19,-43.4 206.74,-297.82 237.26,-322.63l0.18 270.51zm172.67 4.48c-7.49,-82.96 -8.78,-267.43 -2.09,-350.36 8.52,-105.49 132.2,-155.51 204.59,-81.07 90.44,92.99 -15.75,188.6 -56.86,242.47 -31.04,40.67 -138.66,166.96 -145.64,188.96zm13.03 81.11c85.98,69.63 237.98,278.08 316.52,272.5 44.59,-3.18 74.54,-31.41 75.9,-80.64 2.37,-85.5 -123.79,-146.31 -202.26,-247.72 22.94,-67.65 139.49,-162.84 180.21,-254.07 55.08,-123.37 9.83,-254.72 -59.45,-324.28 -144.35,-144.96 -464.22,-115.98 -497.79,203.67 -87.26,-79.18 -255.33,-289.57 -327.33,-286.65 -45.38,1.84 -78.36,31.66 -80.61,77.62 -4.44,90.6 156.15,165.49 202.93,256.8 -53.62,86.21 -145.26,162.23 -183.08,256.85 -158.37,396.11 509.08,598.58 560.66,115.42l14.31 10.49z"></path> <path class="fil1" d="M4749.85 531.09c211.66,-75.31 292.33,275.29 102.56,344.53 -213.55,77.92 -311.5,-270.2 -102.56,-344.53zm373.56 237.71c38.12,-195.99 -94.51,-351.6 -250.5,-384.96 -447.28,-95.68 -568.41,558.75 -143.06,638.57 203.67,38.22 362.63,-94.67 393.55,-253.61z"></path> <path class="fil3" d="M3593.09 811.48c-57.12,33.35 -94.86,93.2 -197.02,58.58 -60.02,-20.32 -106.61,-80.66 -108.77,-160.72 -2.2,-81.17 44.41,-154.38 105.57,-174.12 107.07,-34.55 147.53,28.01 202.39,54.71l-1.23 -176.21c-247.66,-114.15 -480.45,39.94 -476.57,295.84 4.92,323.75 356.4,371.98 477.77,277.18l-2.13 -175.25z"></path> <polygon class="fil4" points="3860.2,1013.45 4237.8,1012.52 4238.67,866.92 4030.27,866.23 4025.15,388.87 3858.26,390.12 "></polygon> <path class="fil1" d="M4276.58 388.92c-13.85,46.58 -12.01,556.14 -3.61,625.16l171.54 -3.16 -4.22 -621.88 -163.71 -0.12z"></path> <polygon class="fil2" points="3641.02,1013.41 3812.97,1012.37 3807.89,388.58 3639.11,389.4 "></polygon> <path class="fil0" d="M4749.85 531.09c-208.94,74.33 -110.99,422.46 102.56,344.53 189.77,-69.25 109.09,-419.84 -102.56,-344.53z"></path> <path class="fil0" d="M779.84 842.62c6.98,-22 114.6,-148.29 145.64,-188.96 41.11,-53.88 147.31,-149.48 56.86,-242.47 -72.39,-74.44 -196.07,-24.42 -204.59,81.07 -6.69,82.93 -5.41,267.4 2.09,350.36z"></path> <path class="fil0" d="M607.17 838.14l-0.18 -270.51c-30.52,24.81 -232.07,279.23 -237.26,322.63 -9.66,80.75 52.55,140.78 133.56,133.01 98.85,-9.48 103.87,-90.58 103.87,-185.13z"></path> <path class="fil0" d="M2118.59 778.76l164.25 1.61c-9.28,-45.6 -25.58,-91.86 -38.89,-135.17 -10.99,-35.73 -24.84,-96.79 -44.28,-124.97l-81.09 258.54z"></path> <path class="fil0" d="M1588.97 683.95c71.57,5.62 131.44,-7.06 134.02,-74.07 3.12,-81.28 -58.79,-94.34 -134.84,-85.83l0.81 159.9z"></path> <path class="fil3" d="M4408.65 1791.32c-74.14,-27.93 -157.52,48.8 -133.36,91.91 18.82,33.55 65.04,1.31 87.76,-11.63 32.42,-18.46 52.07,-25.66 45.6,-80.29z"></path> <path class="fil5 str0" d="M1547.47 1788.16c2.59,-23.36 5.16,-46.75 0,-67.03 -5.15,-20.28 -18.05,-37.46 -36.97,-37.04 -18.93,0.43 -43.86,18.49 -61.49,49.44 -17.63,30.96 -27.94,74.83 -24.5,109.64 3.44,34.83 20.62,60.64 44.71,72.67 24.08,12.04 55.03,10.31 90.29,-3.44 35.26,-13.76 74.81,-39.56 94.17,-62.28 19.35,-22.72 18.48,-42.34 27.94,-64.27 9.46,-21.93 29.25,-46.15 46.02,-57.83 16.76,-11.69 30.52,-10.82 39.55,1.28 9.03,12.11 13.34,35.49 15.48,61.29 2.16,25.79 2.16,54.01 -6.01,75.01 -8.16,21 -24.51,34.76 -40.43,36.05 -15.9,1.29 -31.38,-9.88 -43.41,-24.94 -12.04,-15.05 -20.64,-33.97 -29.24,-52.89"></path> <path class="fil5 str0" d="M2019.57 1581.33c-0.86,-30.1 -1.71,-60.19 -5.59,-76.54 -3.87,-16.33 -10.75,-18.92 -19.35,-9.88 -8.6,9.03 -18.92,29.67 -28.38,58.91 -9.45,29.24 -18.05,67.06 -23.65,121.24 -5.59,54.18 -8.16,124.69 -17.63,188.32 -9.45,63.64 -25.8,120.4 -38.69,158.66 -12.89,38.27 -22.35,58.05 -27.95,59.34 -5.58,1.28 -7.31,-15.92 -9.02,-33.11"></path> <path class="fil5 str0" d="M2115.02 1573.59c18.93,-29.24 37.84,-58.48 43,-77.84 5.16,-19.34 -3.44,-28.81 -15.05,-22.79 -11.61,6.03 -26.23,27.54 -44.3,64.94 -18.05,37.41 -39.55,90.73 -55.46,144.05 -15.91,53.32 -26.23,106.63 -33.11,154.78 -6.88,48.16 -10.32,91.15 -11.61,125.54 -1.28,34.4 -0.43,60.2 -6.45,82.98 -6.01,22.79 -18.93,42.58 -31.4,49.46 -12.46,6.89 -24.5,0.85 -33.1,-8.61 -8.6,-9.45 -13.75,-22.34 -18.92,-35.25"></path> <path class="fil5 str0" d="M1827.35 1821.25c36.33,-1.28 72.66,-2.59 122.22,-8.1 49.55,-5.51 112.34,-15.25 153.93,-21.38 41.6,-6.12 62.02,-8.63 74.6,-19.89 12.58,-11.27 17.31,-31.25 14.41,-44.26 -2.9,-13.01 -13.44,-19.02 -25.48,-17.52 -12.04,1.51 -25.58,10.53 -35.69,21.92 -10.11,11.4 -16.77,25.16 -24.3,42.79 -7.52,17.63 -15.91,39.12 -14.3,59.23 1.62,20.1 13.23,38.8 32.15,48.36 18.93,9.57 45.15,10.01 69.86,4.2 24.72,-5.8 47.95,-17.84 61.71,-25.48 13.75,-7.63 18.05,-10.85 22.35,-14.08"></path> <path class="fil5 str0" d="M2290.43 1788.16c9.03,5.45 18.06,10.88 30.96,10.88 12.9,0 29.67,-5.44 43.85,-15.11 14.19,-9.68 25.81,-23.58 31.83,-36.88 6.02,-13.29 6.45,-25.98 0.54,-35.55 -5.91,-9.56 -18.17,-16.02 -33.32,-14.09 -15.14,1.94 -33.22,12.26 -48.26,28.78 -15.05,16.53 -27.09,39.25 -34.19,58.71 -7.09,19.45 -9.23,35.64 -6.98,54.05 2.26,18.42 8.93,39.06 20.32,50.23 11.39,11.19 27.53,12.9 46.76,10.85 19.25,-2.04 41.6,-7.84 61.07,-17.72 19.45,-9.89 36,-23.87 52.55,-37.84"></path> <path class="fil5 str0" d="M2516.13 1594.88c0.43,15.92 0.85,31.82 1.28,47.72"></path> <path class="fil5 str0" d="M2510.97 1725.15c2.16,7.75 4.29,15.48 5.37,31.82 1.08,16.34 1.08,41.29 -1.71,64.5 -2.8,23.23 -8.39,44.72 -11.4,59.76 -3.01,15.06 -3.43,23.65 -3.86,32.25"></path> <path class="fil5 str0" d="M2596.1 1718.7c0.43,30.95 0.86,61.92 3.02,90.29 2.16,28.39 6.01,54.19 13.11,64.72 7.1,10.54 17.42,5.8 30.31,-4.73 12.91,-10.53 28.39,-26.87 39.35,-45.36 10.96,-18.48 17.42,-39.12 20.42,-45.39 3.01,-6.27 2.59,1.84 2.79,15.59 0.23,13.76 1.08,33.17 7.09,48.47 6.02,15.3 17.21,26.49 30.75,24.54 13.55,-1.93 29.45,-16.99 37.62,-24.08 8.18,-7.08 8.6,-6.23 13.12,0.22 4.52,6.46 13.12,18.49 23,26.87 9.9,8.39 21.07,13.14 38.49,13.56 17.42,0.43 41.06,-3.45 56.11,-14.62 15.05,-11.18 21.5,-29.66 22.79,-47.51 1.28,-17.84 -2.58,-35.04 -9.03,-47.3 -6.45,-12.24 -15.49,-19.55 -27.31,-23.42 -11.81,-3.87 -26.45,-4.31 -40.15,-2.75 -13.71,1.56 -26.54,5.1 -37.95,13.81 -11.39,8.71 -21.4,22.59 -26.25,36.17 -4.85,13.58 -4.55,26.87 -4.26,40.15"></path> <path class="fil5 str0" d="M2900.43 1875.03c1.74,24.21 3.48,48.41 3.69,78.79 0.24,30.39 -1.06,66.92 -12.67,94.01 -11.61,27.1 -33.55,44.72 -59.34,55.04 -25.8,10.31 -55.46,13.34 -81.27,12.04 -25.79,-1.28 -47.72,-6.87 -67.29,-16.12 -19.56,-9.25 -36.76,-22.14 -53.96,-35.04"></path> <path class="fil5 str0" d="M3305.72 1518.44c-26.65,39.56 -53.32,79.12 -73.1,116.09 -19.77,36.99 -32.68,71.37 -41.06,107.92 -8.38,36.55 -12.23,75.25 -8.8,103.83 3.44,28.59 14.17,47.1 26.86,57.83 12.69,10.76 27.31,13.77 46.01,12.05 18.71,-1.71 41.48,-8.18 60.18,-17.64 18.71,-9.45 33.33,-21.91 47.95,-34.38"></path> <path class="fil5 str0" d="M3006.49 1753.2c47.29,-5.59 94.59,-11.17 159.07,-19.99 64.49,-8.81 146.19,-20.85 199.72,-29.45 53.52,-8.6 78.89,-13.76 104.26,-18.93"></path> <path class="fil5 str0" d="M3526.29 1554.56c-18.05,55.04 -36.12,110.06 -49.66,158.87 -13.54,48.8 -22.56,91.38 -28.37,125.13 -5.81,33.75 -8.39,58.7 -9.68,70.95 -1.29,12.24 -1.29,11.82 6.45,-1.08 7.75,-12.9 23.23,-38.27 38.7,-60.4 15.48,-22.11 30.96,-40.99 41.93,-53.03 10.96,-12.04 17.42,-17.24 20.42,-19.62 3.01,-2.39 2.58,-1.96 -0.22,15.02 -2.8,17 -7.96,50.54 -9.68,75.68 -1.72,25.16 0,41.92 1.71,58.69"></path> <path class="fil5 str0" d="M3599.82 1831.89c17.63,6.88 35.25,13.76 50.95,11.81 15.7,-1.93 29.46,-12.67 37.19,-23.4 7.75,-10.73 9.46,-21.44 6.88,-30.25 -2.58,-8.82 -9.45,-15.74 -20.21,-15.74 -10.74,0 -25.36,6.93 -37.4,14.66 -12.04,7.73 -21.49,16.3 -30.96,29.16 -9.45,12.89 -18.92,30.08 -20.42,45.78 -1.5,15.7 4.96,29.89 13.56,38.69 8.6,8.83 19.35,12.26 35.47,12.26 16.11,0 37.63,-3.44 58.69,-9.03 21.07,-5.58 41.71,-13.33 62.35,-21.06"></path> <path class="fil5 str0" d="M3928.74 1559.72c1.72,45.57 3.44,91.15 2.8,137.37 -0.65,46.23 -3.66,93.09 -4.1,134.14 -0.42,41.06 1.72,76.33 3.23,93.3 1.51,17 2.36,15.69 12.25,3.87 9.89,-11.82 28.82,-34.17 61.27,-74.8 32.46,-40.64 78.47,-99.53 116.52,-147.28 38.06,-47.72 68.16,-84.26 89.43,-107.92 21.29,-23.65 33.75,-34.39 46.22,-45.14"></path> <path class="fil5 str0" d="M4089.96 1511.99c-0.86,38.69 -1.71,77.4 -1.71,130.92 0,53.53 0.85,121.89 2.36,169.4 1.51,47.52 3.64,74.17 5.37,90.73 1.72,16.55 3.02,23 4.52,25.37 1.51,2.36 3.23,0.64 11.19,-6.67 7.95,-7.31 22.14,-20.21 45.35,-46.01 23.23,-25.78 55.46,-64.49 80.83,-99.1 25.36,-34.61 43.87,-65.13 59.34,-92.01 15.48,-26.87 27.94,-50.09 38.91,-72.02 10.96,-21.93 20.42,-42.56 29.88,-63.2"></path> <path class="fil6 str0" d="M4414.57 1760.3c-13.32,-8.84 -34.82,-17.01 -56.34,-15.94 -21.49,1.08 -42.98,11.4 -61.05,26.65 -18.05,15.27 -32.68,35.48 -40.64,54.4 -7.94,18.93 -9.24,36.56 -6.66,51.39 2.59,14.84 9.04,26.87 21.93,31.81 12.91,4.95 32.25,2.8 53.74,-4.94 21.51,-7.74 45.15,-21.06 64.28,-37.83 19.14,-16.77 33.76,-36.99 41.07,-50.51 7.31,-13.52 7.31,-20.34 4.72,-28.52 -2.57,-8.17 -7.73,-17.67 -21.06,-26.52z"></path> <path class="fil5 str0" d="M4482.07 1708.04c3.44,22.35 6.88,44.72 10.1,69.44 3.22,24.71 6.25,51.81 6.67,77.6 0.43,25.8 -1.71,50.3 -3.87,74.81"></path> <path class="fil5 str0" d="M4498.23 1838.21c13.95,-16.68 27.93,-33.37 45.01,-47.33 17.07,-13.96 37.29,-25.17 52.98,-31.22 15.69,-6.05 26.88,-6.91 38.05,-7.78"></path> <path class="fil5 str0" d="M4662.62 1773.81c19.79,-1.72 39.56,-3.44 63.21,-20 23.66,-16.55 51.16,-47.93 69.65,-76.09 18.5,-28.16 27.96,-53.11 32.04,-78.7 4.09,-25.58 2.79,-51.8 -0.44,-70.29 -3.21,-18.48 -8.38,-29.23 -10.96,-34.61 -2.58,-5.37 -2.58,-5.37 -11.81,7.52 -9.25,12.9 -27.73,38.7 -43.86,68.36 -16.12,29.67 -29.88,63.22 -39.12,103.2 -9.25,39.99 -13.98,86.42 -12.49,125.11 1.52,38.7 9.26,69.67 21.08,81.91 11.82,12.26 27.74,5.81 44.5,-7.75 16.78,-13.54 34.4,-34.16 52.03,-54.8"></path> <path class="fil5 str0" d="M5053.47 1453.93c-14.18,35.25 -28.38,70.52 -43.65,117.17 -15.26,46.65 -31.6,104.7 -40.85,151.77 -9.24,47.09 -11.38,83.19 -6.45,115 4.95,31.83 16.99,59.34 29.67,72.46 12.69,13.12 26.01,11.82 37.41,7.51 11.39,-4.29 20.85,-11.59 30.32,-18.91"></path> <path class="fil6 str0" d="M4905.62 1751.38c-14.68,0.07 -28.86,3.51 -41.87,10.21 -13,6.69 -24.83,16.62 -31.05,32.82 -6.23,16.19 -6.88,38.63 -1.82,58.18 5.05,19.53 15.8,36.17 30.73,45.56 14.94,9.39 34.08,11.53 50.51,9.56 16.43,-1.97 30.17,-8.08 41.38,-17.98 11.21,-9.91 19.89,-23.65 24.27,-40.57 4.39,-16.93 4.48,-37.05 -0.77,-52.79 -5.22,-15.73 -15.77,-27.09 -28.64,-34.4 -12.85,-7.33 -28.05,-10.64 -42.73,-10.57z"></path> </g> </g> </svg> 