<?xml version="1.0" encoding="UTF-8"?> <!-- Creator: CorelDRAW 2018 (64-Bit) --> <svg xmlns="http://www.w3.org/2000/svg" xmlns:xlink="http://www.w3.org/1999/xlink" xmlns:xodm="http://www.corel.com/coreldraw/odm/2003" xml:space="preserve" width="54.3718mm" height="24.5738mm" style="shape-rendering:geometricPrecision; text-rendering:geometricPrecision; image-rendering:optimizeQuality; fill-rule:evenodd; clip-rule:evenodd" viewBox="0 0 5420.43 2449.81"> <defs> <style type="text/css"> <![CDATA[ .fil0 {fill:#FEFEFE} ]]> </style> </defs> <g id="Слой_x0020_1"> <metadata id="CorelCorpID_0Corel-Layer"></metadata> <g id="_2438383325616"> <g id="_2912146990336"> <path class="fil0" d="M4725.7 1070.52l311.9 0.63c26.01,37.56 80.98,263.65 92.69,322.47l-490.43 -0.07 85.84 -323.03zm-3415.74 0.04l318.15 1.07 86.13 321.95 -489.91 -0.22 85.63 -322.79zm3578.33 -573.45l104.48 393.72 -216.44 -0.56 111.96 -393.17zm-3415.12 2.89l103.24 390.91 -215.75 -1.36 112.51 -389.56zm2524.15 886.01c-13.15,17.83 6.75,4.76 -15.87,12.22l-313.94 -3c-17.83,-51.26 -8.01,-591.05 -5.68,-686.92l-168.69 -0.14 1.08 431.28c0.1,5.44 0.35,28.22 -0.5,32.38 -4.63,22.89 11.53,5.48 -10.1,16.01 -15.5,-13.48 -40.75,-25.11 -57.81,-36.62 -357.93,-241.51 -300.74,-826.33 153.27,-968.19l0.45 -181.84c-179.1,5.51 -426.85,223.09 -502.52,399.88 -134.86,315.12 -53.91,666.83 215.67,874.61 88.85,68.48 166.76,90.72 195.64,116.22l-769.82 1.55 0.36 -688.45 -177.68 0.1 -2.39 480.82c-38.47,-13.9 -94.47,-58.26 -122.88,-80.36 -117.73,-91.58 -185.55,-286.31 -169.28,-460.97 23.52,-252.38 168.16,-363.03 383.42,-464.21l0.73 -177.36c-120.67,-9.76 -338.74,163.75 -382.82,213.87 -320.33,364.18 -205.43,944.01 230.76,1144.07l41.11 19.34c12.33,8.05 8.7,5.24 17.03,13.62l-637.36 -0.42c-17.64,-100.67 -62.56,-237.16 -90.78,-342.02 -32.37,-120.22 -261.72,-986.33 -280.95,-1023.62 -145.17,0 -103.57,-62.27 -191.92,265.97 -33.16,123.2 -65.74,244.67 -99.93,368.75 -38.59,140.08 -177.05,627.15 -196.58,730.85l-283.43 0.04 -0.21 -686.94 -177.81 -0.79 -0.69 480.17c-85.18,-27.53 -176.68,-126.99 -224.15,-203.25 -56.6,-90.91 -83.36,-217.62 -69.09,-342.89 14.59,-128.11 66.38,-220.08 125.51,-293.15 37.46,-46.3 167.43,-142.9 257.27,-162.24l0.64 -184.39c-154.73,14.14 -280.74,122.82 -382.7,222.24 -93.1,90.75 -168.67,245.56 -180.83,422.36 -13.32,193.53 36.7,353.45 125.77,478.2 61,85.45 147.74,161.25 239.84,212.31l105.55 57.67 -573.92 0.94 -1.09 176 5419.42 3.47 1.01 -178.58 -98.08 -1.61c-27.47,-45.04 -249.67,-900.01 -283.06,-1025.68 -25.23,-94.95 -61.21,-257.94 -95.05,-339.43l-119.86 0.5 -369.89 1363.53 -279.81 1.62 0.35 -1365.81 -174.8 0.13 -2.92 1358.14z"></path> <path class="fil0" d="M1285.42 2119.95c22.07,28.74 53.82,127.88 70.64,171.26 11.29,29.1 21.12,54.26 32.99,84.35 13.83,35.04 13.84,61.69 47.13,73.27 25.42,-13.18 14.17,-2.23 27.75,-34.44 6.33,-15.03 9.9,-28.1 15.59,-42.66 11.92,-30.51 21.96,-55.19 32.96,-84.3 20.17,-53.39 43.97,-119.21 65.33,-168.53 25.09,40.21 47.59,257.01 58.7,322.9l72.54 -7.48c-2.69,-54.7 -76.49,-479.34 -98.23,-504.69 -39.67,3.94 -42.44,45.03 -56.79,80.97l-117.85 287.92c-22.96,-22.78 -66.12,-150.45 -81.91,-189.83 -13.85,-34.56 -26.23,-63.84 -41.28,-100.93 -31.13,-76.64 -17.95,-73.21 -52.7,-78.01 -26.67,21.1 -99.64,469.36 -101.53,511.17l72.1 -2.78 54.55 -318.2z"></path> <path class="fil0" d="M3234.8 2086.29l163.81 189.13c29.35,34.78 48.64,58.56 79.96,95.92 63.71,76.02 48.07,80.5 93.33,72.49 11.53,-35.05 4.37,-238.4 4.37,-291.32 0,-220.85 20.43,-224.62 -66.79,-212.73 -19.9,50.13 -4.7,271.57 -7.94,343.77l-161.74 -183.7c-21.73,-26.84 -141.63,-185.53 -168.24,-166.34 -22.7,16.36 -10.43,489.52 -9.46,504.45 32.89,4.85 39.86,7.73 71.92,-3.83l0.78 -347.84z"></path> <path class="fil0" d="M3824.27 2219.51c-34.09,-255.45 323.54,-285.3 361.98,-63.17 18.77,108.52 -56.67,199.75 -145.6,215.29 -113.92,19.91 -203.81,-57.88 -216.38,-152.12zm114.51 -280.18c-317.16,81.87 -208.98,584.06 131.39,501.3 321.01,-78.04 209.24,-589.22 -131.39,-501.3z"></path> <path class="fil0" d="M2787.62 2076.68l81.36 191.48 -171.36 -0.67 90 -190.81zm-238.75 362.48c102.33,9.69 80.89,-30.59 121.35,-107.99l228.53 0.65c62.95,119.32 23.89,111.39 121.66,107.77 -5.46,-48.43 -88.25,-208.88 -113.07,-267.39 -14.44,-33.99 -90.19,-228.36 -122.71,-242.76 -31.41,17.46 -51.24,84.88 -67.37,122.34 -34.94,81.22 -163.13,342.3 -168.39,387.38z"></path> <path class="fil0" d="M2243.72 2372.84c0.21,-44.34 12.91,-415.91 -10.44,-431.34 -12.29,-8.12 -52.04,-9.35 -61.93,6.94 -8.31,13.67 -3.65,136.25 -3.65,162.19 0,43.19 -14.57,319.06 16.97,329.77 11.01,3.73 149.04,1.06 172.9,1.23 66.13,0.49 114.19,18.44 86.75,-68.29l-200.6 -0.5z"></path> <path class="fil0" d="M1951.5 1939c-76.28,-7.12 -69.07,-0.84 -68.05,70.72 1.2,83.54 -6.37,392.29 4.93,430.06l68.64 -0.29c6.82,-68.88 13.01,-455.87 -5.52,-500.49z"></path> <path class="fil0" d="M3483.63 1187.85c21.63,-10.53 5.47,6.88 10.1,-16.01 0.85,-4.16 0.6,-26.94 0.5,-32.38l-1.08 -431.28 168.69 0.14c-2.32,95.86 -12.15,635.66 5.68,686.92l313.94 3c22.62,-7.47 2.72,5.61 15.87,-12.22l-326.49 4.92 0.03 -685.09 -182.86 -4.34 -4.39 486.34z"></path> </g> </g> </g> </svg> 