<?xml version="1.0" encoding="UTF-8"?> <!-- Creator: CorelDRAW 2018 (64-Bit) --> <svg xmlns="http://www.w3.org/2000/svg" xmlns:xlink="http://www.w3.org/1999/xlink" xmlns:xodm="http://www.corel.com/coreldraw/odm/2003" xml:space="preserve" width="72.5682mm" height="17.232mm" style="shape-rendering:geometricPrecision; text-rendering:geometricPrecision; image-rendering:optimizeQuality; fill-rule:evenodd; clip-rule:evenodd" viewBox="0 0 6957.92 1652.22"> <defs> <style type="text/css"> <![CDATA[ .fil0 {fill:#FEFEFE} ]]> </style> </defs> <g id="Слой_x0020_1"> <metadata id="CorelCorpID_0Corel-Layer"></metadata> <g id="_2438383350544"> <g id="_2913291797440"> <path class="fil0" d="M789.11 718.46l0 205.86 -130.37 0 60.34 -104.35c15.19,-24.38 52.06,-89.48 70.03,-101.51zm288.2 205.86l-178.41 0 0 -301.93c0,-34.34 -58.48,-20.59 -150.96,-20.59 -25.95,0 -55.44,65.53 -68.9,88.94 -6.44,11.19 -13.91,20.75 -21.71,33.17l-245.63 413.11 116.65 0c10.57,-19.96 20.89,-35.72 32.99,-56.22 38.16,-64.66 14.31,-46.71 227.76,-46.71l0 102.93c132.1,0 109.79,21.81 109.79,-102.93l171.54 0c1.37,61.4 21.83,178.94 43.95,237.39 52.13,137.72 123.22,243.84 251.32,318.2 225.49,130.88 519.65,39.88 701.37,-121.62 79.28,-70.45 157.38,-163.1 212.34,-254.28 17.18,-28.5 45.86,-70.98 53.6,-104.22 -52.5,0 -236.5,-12.85 -272.53,15.67 -2.18,1.73 -22,29.25 -26.45,35.29 -77.84,105.53 -235.81,237.24 -366.61,237.24 -93.52,0 -166.81,-2.52 -245.56,-76.94 -107.99,-102.05 -135.41,-292.94 -116.46,-436.04l39.46 -159.53c34.34,-85.96 70.53,-174.93 129.32,-248.08l61.11 -69.25c228.83,-226.55 528.46,-245.64 644,59.41 20.27,53.53 30.21,124.09 30.21,182.5l233.31 0c0,-150.83 -43.1,-303.7 -123.48,-425.47 -69.52,-105.31 -193.7,-192.53 -332.07,-216.87 -120.95,-21.28 -220.48,6.26 -312.2,39.29 -44.63,16.07 -78.93,35.26 -119.65,58.75 -107.66,62.11 -211.35,173.68 -283.1,272.71 -96.88,133.73 -195.01,373.42 -195.01,546.07z"></path> <path class="fil0" d="M2689.85 1411.5l212.72 0 104.87 -306.84c20,-52.56 32.07,-101.02 51.05,-154.8 9.27,-26.3 17.48,-49.07 27.39,-75.54 6.94,-18.53 5.1,-16.6 11.18,-36.85 8.07,-26.88 -0.86,-22.89 25.08,-29.82l-0.24 549.19c-1.23,74.77 -18.99,61.52 144.34,61.52 20.32,0 24.07,-14.75 32.45,-29.3l96.52 -157.37c10.25,-16.36 16.21,-24.22 26.7,-41.91l221.66 -361.61c12.93,-22.66 19.35,-26.89 41.24,-27.37l-162.16 455.41c-12.35,36.62 -49.82,122.13 -50.55,155.3 270.84,0 174.98,46.34 277.45,-223.46 8.37,-22.03 11.45,-35.18 18.36,-57.13l102.17 -295.81c21.39,-58 116.04,-336.11 116.65,-363.68l-356.82 0c-6.3,27.07 -94.6,162.83 -119.4,203.09l-182.12 305.08c-12.68,24.06 -0.93,19.87 -27.84,27.05l0 -535.22 -288.2 0 -241.57 705.37c-9.72,35.49 -28.02,77.48 -41.66,116.15l-39.27 118.56z"></path> <path class="fil0" d="M4123.97 1219.37c2.88,-34.49 23.79,-81.68 33.46,-110.64 13.48,-40.36 24.82,-64.58 35.16,-108.94 57.35,0 282.84,-7.96 327.03,9.2 100.4,38.98 44.94,194.64 -101.41,209.55 -81.54,8.31 -207.86,0.82 -294.24,0.82zm130.38 -397.98c105.51,-219.9 -64.18,-178.42 363.68,-178.42 64.8,0 63.68,171.39 -95.93,178.54 -85.32,3.83 -181.22,-0.12 -267.75,-0.12zm-411.71 590.12c210.51,0 421.03,0.26 631.53,0.23 330.01,-0.04 377.59,-445.18 219.35,-487.42 18.64,-25.46 37.56,-17.74 65.92,-37.01 117.31,-79.74 155.57,-291.99 44.22,-375.06 -47.39,-35.35 -101.22,-40.92 -185.62,-40.83 -153.25,0.19 -306.5,0.01 -459.75,0.01 -2.56,30.76 -135.03,400.51 -156.26,468.17l-159.39 471.91z"></path> <path class="fil0" d="M5441.45 649.83l0 343.09 -205.86 0 100.14 -174.33c20.45,-31.1 33.22,-55.11 51.1,-86.15l45.2 -71.44c12.43,-16.46 0.31,-0.68 9.43,-11.17zm-686.19 754.8l226.44 0c2.31,-8.63 109.96,-205.86 137.24,-205.86l322.51 0 0 205.86 192.13 0 0 -919.49 -247.03 0c-38.09,0 -40.68,-6.86 -75.48,-6.86l-418.85 692.77c-23.78,41.45 -134.6,205.2 -136.97,233.58z"></path> <path class="fil0" d="M5702.2 1404.64l665.6 0 61.76 -178.41 -466.61 0c1.97,-23.63 7.07,-30.72 13.63,-48.12l47.26 -138.02c20.2,-61 39.66,-127 62.67,-184.35 11.82,-29.46 18.74,-59.86 31.35,-92.16l92.11 -285.28 -192.14 0c-5.7,24.5 -12.72,36.51 -19.63,55.85l-196.73 571.79c-8.94,27.03 -11.17,36.45 -20.89,61.45l-78.39 237.26z"></path> <path class="fil0" d="M6463.86 1404.64c215.44,0 174.81,22.12 215.3,-100.35l241.86 -705.08c10.27,-30.81 36.26,-92.33 36.9,-120.92 -264.01,0 -177.04,-37.39 -255.97,162.6l-122.3 358.03c-7,21.09 -11.12,41.36 -19.67,62.68l-100.73 297.73c-8.28,24.95 -26.9,45.31 4.61,45.31z"></path> <path class="fil0" d="M2333.03 1404.64l199 0 197.17 -571.36c7.42,-20.85 12.67,-32.52 19.44,-56.04l60.75 -179.42c11.67,-29.91 35.66,-87.9 38.29,-119.53l-192.13 0c-17.13,32.36 -26.98,74.14 -41.22,109.74l-141.16 407.79c-8.45,21.83 -11.04,34.16 -19.53,55.96l-80.39 235.25c-8.8,24.82 -37.99,90.78 -40.22,117.61z"></path> <path class="fil0" d="M-0 1143.89l356.81 0c11.25,-42.1 50.28,-60.53 61.77,-109.79l-281.34 0c12.87,-26.8 24.73,-70.68 35.18,-102.06l108.92 -323.38 -102.93 0 -159.42 465c-7.72,24.48 -18.21,35.23 -18.98,70.22z"></path> </g> </g> </g> </svg> 