<?xml version="1.0" encoding="UTF-8"?> <!-- Creator: CorelDRAW 2018 (64-Bit) --> <svg xmlns="http://www.w3.org/2000/svg" xmlns:xlink="http://www.w3.org/1999/xlink" xmlns:xodm="http://www.corel.com/coreldraw/odm/2003" xml:space="preserve" width="63.1416mm" height="12.661mm" style="shape-rendering:geometricPrecision; text-rendering:geometricPrecision; image-rendering:optimizeQuality; fill-rule:evenodd; clip-rule:evenodd" viewBox="0 0 6368.5 1277"> <defs> <style type="text/css"> <![CDATA[ .fil0 {fill:#FEFEFE} ]]> </style> </defs> <g id="Слой_x0020_1"> <metadata id="CorelCorpID_0Corel-Layer"></metadata> <g id="_2438378558704"> <g id="_2947886952832"> <path class="fil0" d="M1549.95 385.31c0,279.3 272.92,329.59 387.81,444.21 96.39,96.16 -82.16,171.33 -260.26,92.51 -49.3,-21.81 -110.94,-61.62 -134.26,-67.04l0 335.48c33.14,8.86 141.8,80.52 295.23,80.52 159.27,0 326.25,9.48 444.67,-105.53 184.04,-178.77 162.59,-412.49 -52.81,-554.72 -81.57,-53.86 -264.38,-138.61 -264.38,-205.3 0,-54.4 26.66,-80.72 88.85,-85.74 33.1,-2.68 95.89,17.91 121.05,30.18 26.41,12.87 67.9,39.65 90.02,57.59 41.84,33.94 58.3,57.86 89.24,65.08l0.55 -295.78c-0.77,-39.15 -10.98,-44.96 -36.76,-63.88 -174.59,-128.13 -415.37,-154.89 -605.15,-40.15 -49.52,29.94 -107.38,97.9 -129.5,152.31 -15.81,38.88 -34.31,107.66 -34.31,160.28z"></path> <path class="fil0" d="M5676.42 781.19c0,-189.22 174.28,-232.51 256.82,-142.76 72.86,79.23 77.4,317.21 -115.92,317.21 -84.38,0 -140.9,-89.55 -140.9,-174.45zm100.65 489.8c118.93,0 188.79,6.65 299.79,-49.12 115.23,-57.89 183.52,-126.56 241.47,-241.62 168.58,-334.72 -114.69,-702.29 -447.33,-702.29 -191.97,0 -283.65,20.9 -429.37,147.67 -85.33,74.21 -148.2,224.05 -154.25,342.69 -2.75,54.03 21.89,150.82 46.73,200.84 84.31,169.78 238.9,301.83 442.96,301.83z"></path> <path class="fil0" d="M2797.97 995.89c0,-61.09 6.96,-80.75 92.46,-102.12 20.14,-5.02 49.45,-11.54 69.49,-17.73 24.12,-7.45 41.86,-19.03 66.16,-21.05 0,96.23 0.58,149.97 -61.39,186.86 -77.32,46.01 -166.72,-4.74 -166.72,-45.96zm-315.36 -409.29l0 26.84 288.51 0c20.67,0 20.25,-13.78 29.23,-31.16 70.31,-136.05 232.45,-39.63 232.45,17.74 0,111.38 -193.93,75.88 -358.11,124.99 -155.85,46.62 -232.35,113.46 -232.35,284.31 0,157.16 137.09,261.67 275.11,261.67 88.46,0 150.09,9.37 230.47,-31.21 78.57,-39.67 53.54,-37.24 91.59,-62.73 34.58,23.15 41.26,38.7 101.41,59.61 77.94,27.09 207.02,20.91 294.46,20.91l0 -268.39c-167.42,-13.94 89.75,-467.5 -232.65,-646.33 -170.16,-94.41 -431.47,-86.61 -586.05,15.49 -69.57,45.97 -134.07,135.91 -134.07,228.25z"></path> <path class="fil0" d="M3918.47 539.63c53.37,0 72.64,-4.28 115.98,45.05 18.46,21.01 30.84,59.92 31.64,95.85l-248.26 0c0,-77.83 48.23,-140.9 100.64,-140.9zm-483.09 228.13c0,280.65 225.39,503.22 489.81,503.22 157.4,0 247.12,7.88 396.74,-46.1 24.45,-8.83 48.75,-22.07 72.94,-27.7l0 -248.27c-81.61,19.01 -133.15,80.52 -369.03,80.52 -88.37,0 -208,-60.52 -208,-181.16l583.74 0 0 -80.52c0,-130.04 -72.81,-271.32 -139.13,-337.26 -330.85,-329.04 -827.07,-78.85 -827.07,337.26z"></path> <path class="fil0" d="M4441.82 774.47c0,138.27 72.01,270.65 142.53,340.58 80.87,80.19 208.36,155.94 333.87,155.94 92.76,0 152.28,7.42 240.78,-20.9 14.34,-4.59 33.62,-10.38 49.76,-17.32 21.77,-9.37 28.18,-16.7 51.65,-22.17l0 -308.65c-75.97,6.32 -124.92,63.79 -267.4,46.02 -246.89,-30.79 -218.69,-423.46 138.34,-339.67 36.85,8.65 91.08,35.52 129.06,38.68l0 -308.63c-121.94,-28.41 -69.47,-60.4 -315.36,-60.4 -122.71,0 -265.05,63.51 -350.82,145.7 -87.26,83.63 -152.41,223.9 -152.41,350.81z"></path> <path class="fil0" d="M241.55 593.31l0 221.42 805.17 -422.72c90.98,171.94 97.89,364.14 -20.96,522.53 -9.5,12.66 -17.24,21.25 -26.87,33.52 -38.91,49.51 -21.91,24.07 -57.78,56.28 -15.5,13.92 -15.96,14.62 -33.83,26.57 -247.5,165.42 -455.73,38.79 -477.86,38.79 -9.21,0 -69.05,34.54 -84.99,42.5 -48.69,24.26 -68.89,24.63 -76.04,51.43 22.73,6.08 46.85,25.93 69.28,38.07 25.56,13.83 45.83,21.99 74.43,32.93 58.19,22.27 161.48,42.36 225.32,42.36 23.29,0 18.3,-4.47 47,-5.93 46.46,-2.38 55.51,-1.18 96.66,-10.74 53.95,-12.52 117.8,-37.13 160.43,-60.99 349.65,-195.68 438.25,-636.79 202.11,-951.2 -25.41,-33.83 -50.66,-62.26 -83.49,-84.25 -35.46,8.26 -676.69,354.34 -818.6,429.42z"></path> <path class="fil0" d="M-0 606.73c0,205.1 47.35,321.07 169.73,467.7 14.28,17.13 27.74,30.68 44.98,42.24l825.3 -442.84 0 -214.71c-36.44,8.48 -502.89,268.37 -606.04,319.9 -19.36,9.68 -30,14.78 -49.36,24.45l-156.48 85.07c-13.74,-51.42 -67.1,-81.79 -67.1,-275.1 0,-116.54 61.43,-232.73 135.88,-306.97 124.94,-124.61 292.77,-174.04 468.21,-129.36 106.45,27.11 28.43,59.2 241.34,-53.47 -36.92,-55.15 -223.73,-120.78 -322.06,-120.78 -170.67,0 -275.24,12.44 -419.89,116.88l-84.28 70.05c-100.03,110.26 -180.23,259.44 -180.23,416.95z"></path> </g> </g> </g> </svg> 