<?xml version="1.0" encoding="UTF-8"?> <!-- Creator: CorelDRAW 2018 (64-Bit) --> <svg xmlns="http://www.w3.org/2000/svg" xmlns:xlink="http://www.w3.org/1999/xlink" xmlns:xodm="http://www.corel.com/coreldraw/odm/2003" xml:space="preserve" width="64.932mm" height="16.5804mm" style="shape-rendering:geometricPrecision; text-rendering:geometricPrecision; image-rendering:optimizeQuality; fill-rule:evenodd; clip-rule:evenodd" viewBox="0 0 5954.77 1520.55"> <defs> <style type="text/css"> <![CDATA[ .fil0 {fill:#FEFEFE} ]]> </style> </defs> <g id="Слой_x0020_1"> <metadata id="CorelCorpID_0Corel-Layer"></metadata> <g id="_2438332380400"> <g id="_2912009058368"> <polygon class="fil0" points="1177.71,1094.8 82.94,1094.8 82.94,788.19 155.22,788.19 593.49,410.69 1031.74,788.19 1102.15,788.19 1102.15,993.4 1185.09,993.4 1185.09,615.62 1163.01,615.62 1163.01,482.91 1139.04,482.92 1139.04,744.62 1100.34,744.62 1100.34,613.74 1078.18,613.74 1078.18,484.73 1054.24,484.73 1054.24,744.62 1043.23,744.62 965.76,677.94 965.76,481.04 943.67,481.04 943.67,307.83 919.7,307.83 919.7,440.53 897.58,440.53 897.58,619.18 829.4,560.49 829.4,376 790.67,376 790.67,219.34 766.73,219.34 766.73,352.04 744.61,352.04 744.61,487.47 724.34,469.99 724.34,329.92 702.22,329.92 702.22,197.22 678.28,197.22 678.28,329.92 656.16,329.92 656.16,411.3 619.3,379.57 619.3,129.01 597.18,129.01 597.18,0 573.21,0 573.21,374.83 528.97,412.9 528.97,309.64 506.85,309.64 506.85,152.98 482.91,152.98 482.91,452.56 438.67,490.65 438.67,352.04 416.55,352.04 416.55,199.06 392.58,199.06 392.58,352.04 370.49,352.04 370.49,549.35 307.82,603.34 307.82,436.83 285.7,436.83 285.7,328.07 261.73,328.07 261.73,460.77 239.6,460.77 239.6,662.06 151.15,738.23 151.15,611.93 129.03,611.93 129.03,484.73 105.06,484.73 105.06,744.62 66.36,744.62 66.36,593.46 44.27,593.46 44.27,505.01 20.3,505.01 20.3,744.62 0.03,744.62 -0,1164.86 1177.71,1164.86 "></polygon> <path class="fil0" d="M78.07 1519.95l44.4 -106.6 43.8 106.6 54.87 -143.43 -19.98 0 -35.84 98.99 -43.17 -106.31 -43.16 106.31 -35.84 -98.99 -19.99 0 54.91 143.43zm280.45 0c0.12,0 0.25,0 0.35,0 41.24,0 74.71,-33.38 74.83,-74.61 0,-41.22 -33.29,-73.91 -75.18,-73.91 -0.09,0 -0.22,0 -0.32,0 -40.64,0 -73.59,32.95 -73.59,73.59 0,0.1 0,0.23 0,0.32 0,0.16 0,0.32 0,0.48 0,40.86 33.06,74.02 73.92,74.14l-0.01 0zm-73.27 -92.38c-29.82,0 -53.91,-24.72 -53.91,-56.49 0,-32.02 23.78,-56.44 53.91,-56.44 29.83,0 53.92,24.45 53.92,56.44 0,32.05 -24.45,56.49 -53.92,56.49zm252.51 -23.46l0 -27.59 -19.03 0 0 137.38 19.03 0 0 -67.57c0,-34 20.3,-56.22 41.57,-56.22 3.82,0 8.24,0.64 13.01,2.23l6.02 -18.08c-5.17,-1.89 -10.66,-2.86 -16.17,-2.87 -19.38,0.04 -30.78,9.87 -44.43,32.72l0 0zm147.53 109.82l0 -240.22 -19.03 0 0 240.22 19.03 0zm199.85 0l19.03 0 0 -240.22 -19.03 0 0 127.89c-9.84,-20.02 -26.96,-30.14 -50.13,-30.14 -36.8,0 -63.76,30.14 -63.76,74.55 0,44.43 26.32,73.97 65.66,73.97 22.18,0 39.02,-10.82 48.22,-31.16l0 25.12 0 0zm-92.62 -67.3c0,-36.47 18.72,-57.74 46.63,-57.74 27.92,0 45.99,19.96 45.99,54.21 0,38.1 -18.72,59.04 -46.31,59.04 -29.51,0.04 -46.31,-19.7 -46.31,-55.51l0 0zm457.14 67.3l0 -240.22 -19 0 0 240.22 19 0zm228.44 -68.28l0 -4.71c0,-42.85 -25.72,-69.51 -62.83,-69.51 -39.03,0 -66.94,29.54 -66.94,75.21 0,43.13 27.27,73.3 67.57,73.3 29.5,0 49.17,-12.73 63.11,-40.64l-17.43 -9.51c-10.47,21.89 -25.05,33.01 -45.68,33.01 -27.27,0 -46.34,-21.27 -46.95,-57.13l109.14 0zm-22.53 -16.17l-85.34 0c2.2,-24.13 20.31,-39.66 42.5,-39.66 25.4,0 41.25,14.29 42.85,39.66zm215.73 84.44l19.04 0 0 -137.38 -19.04 0 0 25.05c-9.51,-20.02 -26.96,-30.14 -50.13,-30.14 -36.79,0 -63.76,30.14 -63.76,74.55 0,44.43 26.32,73.97 65.66,73.97 22.22,0 39.34,-10.82 48.22,-31.16l0 25.12 0 0zm-92.65 -67.3c0,-36.47 18.72,-57.74 46.63,-57.74 27.91,0 46.34,19.96 46.34,54.21 0,38.1 -19.03,59.04 -46.63,59.04 -29.53,0.04 -46.34,-19.7 -46.34,-55.51zm320.11 67.3l19.04 0 0 -240.22 -19.04 0 0 127.89c-9.83,-20.02 -26.95,-30.14 -50.13,-30.14 -36.79,0 -63.76,30.14 -63.76,74.55 0,44.43 26.32,73.97 65.66,73.97 22.22,0 39.02,-10.82 48.22,-31.16l0 25.12 0 0zm-92.62 -67.3c0,-36.47 18.72,-57.74 46.63,-57.74 27.92,0 45.99,19.96 45.99,54.21 0,38.1 -18.71,59.04 -46.31,59.04 -29.5,0.04 -46.31,-19.7 -46.31,-55.51l0 0zm344.85 -0.98l0 -4.71c0,-42.85 -25.69,-69.51 -62.8,-69.51 -39.02,0 -66.97,29.54 -66.97,75.21 0,43.13 27.28,73.3 67.58,73.3 29.5,0 49.17,-12.73 63.11,-40.64l-17.44 -9.51c-10.46,21.89 -25.05,33.01 -45.71,33.01 -27.27,0 -46.31,-21.27 -46.95,-57.13l109.18 0zm-22.51 -16.17l-85.33 0c2.23,-24.13 20.3,-39.66 42.49,-39.66 25.38,0 41.25,14.29 42.85,39.66zm161.78 -25.38l0 -27.59 -19.03 0 0 137.38 19.03 0 0 -67.57c0,-34 20.3,-56.22 41.57,-56.22 3.82,0 8.24,0.64 13.01,2.23l6.02 -18.08c-5.18,-1.89 -10.68,-2.86 -16.2,-2.87 -19.35,0.04 -30.78,9.87 -44.4,32.72l0 0zm255.05 109.82l19.04 0 0 -137.38 -19.04 0 0 137.38zm-5.06 -191.05c0,7.96 6.02,14.61 14.58,14.61 0.09,0 0.19,0 0.28,0 8.08,0 14.63,-6.54 14.65,-14.61 -0.04,-8.04 -6.57,-14.55 -14.61,-14.55 -0.11,0 -0.22,0.01 -0.32,0.01 -0.02,0 -0.05,0 -0.06,0 -8.02,0 -14.52,6.49 -14.52,14.51 0,0.02 0,0.03 0,0.04l0 0zm122.14 191.05l19.03 0 0 -71.75c0,-35.48 12.38,-53.59 42.52,-53.59 24.41,0 35.52,13.3 35.52,40.58l0 84.73 19.04 0 0 -93.32c0,-31.7 -19.04,-49.18 -49.49,-49.18 -20.95,0 -37.11,8.6 -48.54,26.36l0 -21.26 -18.08 0 0 137.44zm470.15 -112.36l0.32 -20.95c-11.08,-5.73 -26.29,-9.2 -42.85,-9.2 -44.69,0 -75.47,31.1 -75.47,75.53 0,42.46 29.47,73.59 71.68,73.59 18.4,0 34.95,-3.79 48.86,-11.43l-0.32 -20.94c-14.29,10.12 -29.85,15.53 -45.07,15.53 -33.26,0 -55.83,-24.44 -55.83,-55.51 0,-35.87 21.26,-59.93 55.83,-59.93 15.24,0 29.85,4.42 42.84,13.31l0 0zm174.49 118.38c0.11,0 0.24,0 0.35,0 41.24,0 74.72,-33.37 74.86,-74.61 0,-41.21 -33.33,-73.91 -75.21,-73.91 -0.09,0 -0.22,0 -0.32,0 -40.64,0 -73.59,32.95 -73.59,73.59 0,0.1 0,0.23 0,0.32 0,0.15 0,0.3 0,0.45 0,40.85 33.05,74.03 73.91,74.15l0 0.01zm-73.27 -92.38c-29.8,0 -53.89,-24.72 -53.89,-56.49 0,-32.02 23.74,-56.44 53.89,-56.44 29.86,0 53.95,24.45 53.95,56.44 0,32.05 -24.41,56.49 -53.95,56.49zm256.99 86.36l19.04 0 0 -121.25 30.14 0 0 -16.17 -30.14 0 0 -52.03c0,-25.38 3.18,-37.44 18.4,-37.44 4.76,0.21 9.43,1.51 13.62,3.79l3.54 -16.84c-5.91,-2.09 -12.14,-3.18 -18.41,-3.18 -33.65,0 -36.19,22.25 -36.19,66.01l0 39.66 -25.75 0 0 16.17 25.75 0 0 121.27zm134.16 0l19.1 0 0 -121.25 30.14 0 0 -16.17 -30.14 0 0 -52.03c0,-25.38 3.18,-37.44 18.4,-37.44 4.76,0.21 9.44,1.51 13.63,3.79l3.47 -16.84c-5.9,-2.1 -12.13,-3.18 -18.4,-3.18 -33.65,0 -36.2,22.25 -36.2,66.01l0 39.66 -25.68 0 0 16.17 25.68 0 0 121.27zm254.12 -68.28l0 -4.71c0,-42.85 -25.69,-69.51 -62.8,-69.51 -39.05,0 -66.96,29.54 -66.96,75.21 0,43.13 27.27,73.3 67.56,73.3 29.54,0 49.17,-12.73 63.15,-40.64l-17.47 -9.51c-10.51,21.89 -25.05,33.01 -45.71,33.01 -27.27,0 -46.3,-21.27 -46.95,-57.13l109.17 0zm-22.51 -16.17l-85.35 0c2.23,-24.13 20.33,-39.66 42.52,-39.66 25.37,0 41.21,14.29 42.84,39.66zm254.44 16.17l0 -4.71c0,-42.85 -25.74,-69.51 -62.86,-69.51 -38.99,0 -66.97,29.54 -66.97,75.21 0,43.13 27.28,73.3 67.58,73.3 29.53,0 49.17,-12.73 63.15,-40.64l-17.48 -9.51c-10.44,21.89 -25.05,33.01 -45.71,33.01 -27.21,0 -46.31,-21.27 -46.95,-57.13l109.23 0zm-22.56 -16.17l-85.31 0c2.16,-24.13 20.28,-39.66 42.46,-39.66 25.43,0 41.29,14.29 42.85,39.66l0 0zm260.17 84.44l0 -72.36c0,-35.55 11.43,-53.59 39.05,-53.59 23.15,0 32.35,13.62 32.35,40.58l0 85.37 19.03 0 0 -72.36c0,-35.55 10.82,-53.59 38.1,-53.59 21.9,0 32.94,13.62 32.94,40.58l0 85.37 19.09 0 0 -93.01c0,-30.47 -17.79,-49.49 -47.01,-49.49 -20.88,0 -36.79,8.88 -47.87,26.99 -7.64,-17.79 -21.9,-26.99 -41.89,-26.99 -19.31,0 -34.88,9.2 -43.76,26.67l0 -21.58 -19.03 0 0 137.38 19 0 0 0.04zm400.67 0l19.03 0 0 -137.38 -19.03 0 0 25.05c-9.52,-20.02 -26.93,-30.14 -50.1,-30.14 -36.8,0 -63.79,30.14 -63.79,74.55 0,44.43 26.36,73.97 65.7,73.97 22.18,0 39.28,-10.82 48.19,-31.16l0 25.12 0 0zm-92.62 -67.3c0,-36.47 18.72,-57.74 46.62,-57.74 27.92,0 46.31,19.96 46.31,54.21 0,38.1 -19.03,59.04 -46.62,59.04 -29.47,0.04 -46.31,-19.7 -46.31,-55.51zm353.4 -45.07l0.31 -20.95c-11.07,-5.73 -26.29,-9.2 -42.84,-9.2 -44.69,0 -75.47,31.1 -75.47,75.53 0,42.46 29.47,73.59 71.68,73.59 18.4,0 34.89,-3.79 48.85,-11.43l-0.31 -20.94c-14.3,10.12 -29.86,15.53 -45.07,15.53 -33.33,0 -55.83,-24.44 -55.83,-55.51 0,-35.87 21.27,-59.93 55.83,-59.93 15.24,0 29.86,4.42 42.85,13.31l0 0zm83.43 112.36l19.03 0 0 -71.75c0,-35.48 12.38,-53.59 42.52,-53.59 24.45,0 35.56,13.3 35.56,40.58l0 84.73 19.03 0 0 -93.32c0,-31.7 -19.03,-49.18 -49.49,-49.18 -20.94,0 -37.11,8.6 -47.61,26.36l0 -124.07 -19.03 0 0 240.26zm218.89 0l19.09 0 0 -137.38 -19.09 0 0 137.38zm-5.03 -191.05c0,7.96 6.02,14.61 14.54,14.61 0.09,0 0.19,0 0.28,0 8.07,0 14.62,-6.54 14.63,-14.61 -0.03,-8.04 -6.55,-14.55 -14.6,-14.55 -0.1,0 -0.21,0.01 -0.31,0.01 -0.01,0 -0.03,0 -0.04,0 -8.02,0 -14.51,6.49 -14.51,14.51 0,0.01 0,0.03 0,0.04l0 0zm122.08 191.05l19.1 0 0 -71.75c0,-35.48 12.38,-53.59 42.52,-53.59 24.38,0 35.49,13.3 35.49,40.58l0 84.73 19.03 0 0 -93.32c0,-31.7 -19.03,-49.18 -49.49,-49.18 -20.95,0 -37.11,8.6 -48.54,26.36l0 -21.26 -18.08 0 0 137.44 -0.04 0zm338.58 -68.28l0 -4.71c0,-42.85 -25.75,-69.51 -62.87,-69.51 -38.99,0 -66.96,29.54 -66.96,75.21 0,43.13 27.27,73.3 67.57,73.3 29.54,0 49.17,-12.73 63.15,-40.64l-17.47 -9.51c-10.45,21.89 -25.05,33.01 -45.71,33.01 -27.22,0 -46.31,-21.27 -46.95,-57.13l109.24 0zm-22.57 -16.17l-85.31 0c2.16,-24.13 20.28,-39.66 42.46,-39.66 25.44,0 41.29,14.29 42.85,39.66l0 0zm111.41 59.93c6.97,18.78 24.44,30.53 48.19,30.53 31.38,0 49.78,-17.16 49.78,-41.61 0,-25.69 -13.63,-34.56 -38.36,-42.84 -21.58,-7.29 -32.68,-12.67 -32.68,-26.36 0,-11.36 9.52,-20.28 22.89,-20.28 14.61,0 25.05,6.97 29.47,19.96l17.48 -9.83c-7.29,-18.08 -23.5,-27.92 -45.71,-27.92 -26.61,0 -44.4,16.84 -44.4,39.98 0,17.47 10.76,28.52 33.01,37.75 21.9,9.2 38.67,11.75 38.67,30.79 0,13.36 -9.83,22.56 -26.29,22.56 -16.54,0 -27.59,-7.64 -33.99,-23.2l-18.05 10.47 0 0z"></path> <path class="fil0" d="M2153.22 987.38l101.6 0 157.07 -393.34 370.31 0 227.55 569.84 -248.49 0 -32.85 -89.69 -262.72 0 -32.89 89.69 -248.45 0 35.8 -89.69 -66.94 0 0 -86.8 0 0zm42.62 -393.34l0 129.96 -483.36 0 0 89.37 395.26 0 0 110.22 -395.26 0 0 240.28 -241.11 0 0 -240.28 -295.56 0 0 -110.22 295.56 0 0 -219.33 724.47 0zm790.42 219.33l117.49 0 0 -219.33 724.43 0 0 129.96 -483.35 0 0 89.37 395.26 0 0 110.22 -395.26 0 0 110.29 483.35 0.01 0 129.99 -724.43 0 0 -240.28 -117.49 0 0 -110.22 0 0zm1361.12 -219.33l121.47 290.4 121.46 -290.4 377.34 0 0 569.84 -222.68 0 0 -402.1 -179.9 402.1 -192.41 0 -174.49 -389.79 0 389.79 -222.61 0 0 -461.55 -75.47 -108.29 447.3 0zm710.31 393.34l101.57 0 157.11 -393.34 370.26 0 227.52 569.84 -248.49 0 -32.81 -89.69 -262.72 0 -32.88 89.69 -248.43 0 35.81 -89.69 -66.97 0 0 -86.8 0.04 0zm443.82 -276.98l-99.53 276.98 199.06 0 -99.53 -276.98zm-2904.47 0l-99.53 276.98 199.1 0 -99.57 -276.98z"></path> </g> </g> </g> </svg> 