<?xml version="1.0" encoding="UTF-8"?> <!-- Creator: CorelDRAW 2018 (64-Bit) --> <svg xmlns="http://www.w3.org/2000/svg" xmlns:xlink="http://www.w3.org/1999/xlink" xmlns:xodm="http://www.corel.com/coreldraw/odm/2003" xml:space="preserve" width="62.1842mm" height="12.4368mm" style="shape-rendering:geometricPrecision; text-rendering:geometricPrecision; image-rendering:optimizeQuality; fill-rule:evenodd; clip-rule:evenodd" viewBox="0 0 6003.79 1200.75"> <defs> <style type="text/css"> <![CDATA[ .fil0 {fill:#FEFEFE} ]]> </style> </defs> <g id="Слой_x0020_1"> <metadata id="CorelCorpID_0Corel-Layer"></metadata> <g id="_2438378558480"> <g id="_2912149518416"> <path class="fil0" d="M1064.74 1172.61l300.19 0 0 -459.66 318.95 0 0 459.66 304.88 0 0 -1139.78c0,-10.8 -3.26,-14.07 -14.07,-14.07l-276.74 0c-10.81,0 -14.08,3.26 -14.08,14.07l0 417.46 -304.88 0c-10.8,0 -14.07,-3.26 -14.07,-14.07l0 -417.46 -300.19 0 0 1153.85z"></path> <path class="fil0" d="M351.78 666.04l-51.6 0 0 -389.3 79.74 -4.69c108.52,0 211.06,63.32 211.06,168.85 0,75.05 -2.89,128.78 -72.24,181.05 -36.02,27.14 -105.18,44.09 -166.97,44.09zm-351.78 -647.28l0 1153.85 300.19 0 0 -243.9c185.13,0 317.63,-3.48 447.68,-101.11 52.48,-39.4 90.4,-89.17 120.57,-146.78l28.04 -65.77c7.96,-23.95 20.28,-70.74 22.52,-99.44 22.63,-291.64 -156.65,-501.54 -449.95,-501.54l-469.04 4.69z"></path> <path class="fil0" d="M4540.36 666.04l-51.59 0 0 -389.3c67.03,0 134.35,-24.8 223.92,38.74 107.97,76.59 115.95,350.57 -172.33,350.57zm-351.78 -647.28l0 1153.85 300.2 0 0 -243.9c184.11,0 331.03,-6.34 455.71,-107.14 88.33,-71.41 163.43,-211.14 163.43,-329.08 0,-156.22 -16.3,-220.36 -105.88,-335.02 -75.76,-96.95 -221.36,-143.4 -344.41,-143.4l-469.05 4.69z"></path> <path class="fil0" d="M5215.79 379.93c0,130.92 61.85,245.54 179.5,294.23 66.64,27.57 206.62,71.45 253.38,93.72 82.08,39.09 53.93,112.11 -24.12,138.07 -44.51,14.81 -109.7,19.43 -156.16,14.08 -60.19,-6.93 -67.27,4.39 -168.19,-19.45l-60.97 -14.08 0 286.11 121.94 18.77c47.39,5.27 98.33,9.03 150,9.37l14.59 0c149.43,-0.88 302.8,-31.57 392.23,-137.38 14.6,-17.27 31.71,-40.14 42.09,-61.11 42.68,-86.2 43.69,-115.9 43.71,-209.75l0 -4.52c0,-132.28 -73.99,-217 -181.29,-269 -33.24,-16.11 -192.15,-68.21 -247.62,-90.1 -96.38,-38.03 -60.72,-114.36 -2.11,-137.59 60.67,-24.04 149.93,-19.33 215.55,-10.18 35.06,4.89 70.98,16.4 102.89,19.06 0,-85.98 1.22,-172.7 0.54,-258.52 -0.28,-36.1 -1.37,-26.18 -95.03,-36.29 -20.03,-2.16 -42.1,-4.06 -65.36,-5.38l-133.35 0c-60.84,4.04 -119.53,14.58 -163.41,35.88 -35.32,17.14 -84.15,47.19 -112.29,75.33 -64.16,64.16 -106.52,172.1 -106.52,268.72z"></path> <polygon class="fil0" points="2847.11,1172.61 3456.86,1172.61 3456.86,909.95 3147.29,909.95 3147.29,18.76 2847.11,18.76 "></polygon> <path class="fil0" d="M2265.49 32.83l0 1139.78 304.88 0 0 -1139.78c0,-10.8 -3.26,-14.07 -14.07,-14.07l-276.74 0c-10.81,0 -14.08,3.26 -14.08,14.07z"></path> <path class="fil0" d="M3602.27 32.83l0 1139.78 304.87 0 0 -1139.78c0,-10.8 -3.26,-14.07 -14.07,-14.07l-276.74 0c-10.81,0 -14.07,3.26 -14.07,14.07z"></path> </g> </g> </g> </svg> 