<?xml version="1.0" encoding="UTF-8"?> <!-- Creator: CorelDRAW 2018 (64-Bit) --> <svg xmlns="http://www.w3.org/2000/svg" xmlns:xlink="http://www.w3.org/1999/xlink" xmlns:xodm="http://www.corel.com/coreldraw/odm/2003" xml:space="preserve" width="46.453mm" height="26.8368mm" style="shape-rendering:geometricPrecision; text-rendering:geometricPrecision; image-rendering:optimizeQuality; fill-rule:evenodd; clip-rule:evenodd" viewBox="0 0 4152.04 2398.71"> <defs> <style type="text/css"> <![CDATA[ .fil0 {fill:#FEFEFE} ]]> </style> </defs> <g id="Слой_x0020_1"> <metadata id="CorelCorpID_0Corel-Layer"></metadata> <g id="_2438378599984"> <g id="_2912145344896"> <path class="fil0" d="M2292.71 1722.7c-22.11,33.91 -56.26,35.14 -88.02,55.09l-150.95 73.79c-34.3,17.54 -127.64,65.16 -150.55,71.36 -5.44,-2.31 -8.82,2.01 -8.69,-25.32l0.23 -417.98c-0.07,-15.2 -2.59,-18.7 6.73,-27.21 10.39,-7.48 305.73,-5.06 344.14,-3.5 62.75,2.53 63.01,52.34 64.67,109.32 0.87,29.82 0.66,59.64 -0.17,89.45l-6.02 57.58c-4.34,17.3 -6.43,14.39 -11.37,17.41zm-300.29 324.68l78.81 -35.65c0.68,-0.38 1.57,-0.91 2.26,-1.3l35.74 -17.85c10.89,-5.68 1.68,-4.61 19.1,-6.76l82.05 179.58c4.44,13.37 7.1,17.68 12.81,29.89 5.13,10.97 7.92,19.36 12.67,30.55 16.56,2.52 6.21,5.57 11.41,19.01l43.75 95.49c2.64,8.21 13.68,35.32 17.14,40.98 20.32,4.84 125.75,4.34 151.71,1.03 0.15,-19.74 -31.69,-62.79 -32.64,-91l-23.07 -52.22c-21.34,-40.65 -34.81,-90.62 -58.42,-134.04 -13.3,-24.45 -20.24,-55.53 -40.83,-94.86 -6.94,-13.26 -37.33,-85.55 -36.15,-98.52l51.05 -22.47c35.76,-17.92 56.33,-26.02 80.4,-55.51 13.06,-16 32.99,-47.43 39.3,-67.14 19.51,-60.93 15.73,-241.08 5.31,-300.3 -8.71,-49.51 -44.44,-119.54 -81.1,-129.26 -24.05,-1.84 -23.65,-13.58 -60,-20.03 -29.05,-5.15 -44.41,-6.62 -75.44,-6.54 -130.81,0.32 -361.83,-6.65 -469.47,0.35l-0.82 1071.16 136.88 -0.18c-1.88,-71.75 -0.63,-144.74 -0.63,-216.63 -0.01,-80.53 -7.59,-73.72 31.49,-89.86l5.02 -2.1c22.7,-9.04 11.42,-6.99 26.42,-15.27l12.51 -6.11c11.85,-4.99 8.02,-4.2 22.73,-4.42z"></path> <path class="fil0" d="M152.97 931.9c-5.95,-92.1 -0.49,-203.76 -0.49,-298.02l-0.14 -449.93c-0.69,-42.02 -6.1,-30.48 116.35,-30.48 42.67,0 146.06,-6.39 183.07,18.82 52.07,35.48 72.59,43.31 92.07,97.41 4.69,13.02 3.11,6.34 5.68,11.72 10.23,21.45 15.19,145.27 16,174.12 2.8,100.95 1.6,189.4 -5.16,288.93 -4.17,61.41 -30.13,116.2 -75.08,148.96l-46.11 28.14c-29.69,15.95 -96.81,12.85 -138.34,12.85 -31.04,0 -123.91,3.8 -147.84,-2.52zm-149.11 151.1c33.75,4.62 259.28,1.65 311.23,1.67 96.06,0.03 121.78,0.68 203.14,-33.88 15.45,-6.56 75.85,-49.98 89.76,-63.34 8.23,-7.89 9.6,-13.2 17.79,-21.32 19.03,-18.87 38.17,-43.7 48.49,-69.28 44.16,-109.47 42.54,-225.05 42.47,-352.21 -0.04,-50.88 0.51,-102.45 -3.85,-150.18l-18.11 -139.44c-12.83,-81.04 -87.05,-166.51 -152.3,-202.05 -32.62,-17.78 -78.69,-38.51 -116.81,-40.65 -41.47,-2.32 8.16,-8.85 -107,-8.88 -98.69,-0.03 -216.59,-5.83 -312.94,0.77l-1.85 1078.78z"></path> <path class="fil0" d="M1007.85 1836.76c-0.15,-77.8 1.56,-232.53 33.3,-287.51 29.58,-51.21 56.51,-77.69 111.07,-93.75 16.99,-5 5.93,-7.26 23.35,-10.8l74.97 -1.28c24.03,1.48 19.16,4.38 27.06,8.52 9.99,5.24 17.89,3.49 30.04,9.24 11.46,5.43 14.27,10.62 20.32,15.71 8.19,6.91 13.8,5.25 25.03,14.38 21.86,17.79 52.53,62.71 57.62,91.67 10.2,58.09 6.42,40.84 11.28,100.51 4.98,61.23 14.36,189 3.15,251.86 -6.17,34.56 1.04,136.7 -15.54,174.92 -5.19,11.96 -8.76,12.96 -12.89,21.81 -15.23,32.7 -36.92,63.37 -67.67,83.3 -30.18,19.57 -69.19,32.1 -118.12,30.36 -38.12,-1.36 -87.7,-16.15 -114.26,-37.49 -14.74,-11.84 -26.13,-22.85 -36.58,-38.51l-32.36 -59.97c-17.15,-40.17 -1.87,-68.09 -13.17,-119.36 -8.4,-38.16 -6.51,-107.64 -6.6,-153.62zm568.64 103.52c11.85,-77.21 -0.58,-372.18 -29.85,-421.34l-17.89 -39.01c-7.53,-14.04 -12.76,-23.8 -20.69,-36.68 -14.94,-24.26 -35.05,-40.87 -52.86,-61.19 -9.96,-11.36 -18.89,-18.85 -30.62,-26.59 -7.53,-4.96 -11.35,-5.99 -18.64,-10.36 -28.43,-17.07 -55.73,-36 -98.44,-43.84 -120.07,-22.05 -178.75,-11.52 -276.58,44.86l-43.02 28.74c-32.2,25.45 -70.35,83.71 -89.01,124.37 -28.38,61.85 -30.26,130.41 -34.61,194.76 -1.3,19.15 -5.37,28.47 -5.83,49.8 -3.73,173.79 -3.41,218.83 19.88,378.89l11.81 45.56c10.4,43.49 58.19,111.02 89.77,138.74 35.21,30.88 93.56,70.88 148.46,80.23 19.29,3.28 23.69,8.55 46.74,9.88 87.59,5.02 159.95,-8.06 232.59,-53.21 54.22,-33.69 104.67,-94.88 131.51,-153.81 6.99,-15.36 23.93,-71.87 24.89,-89.11l12.41 -160.69z"></path> <path class="fil0" d="M4139.11 2383.38l0.57 -137.25c-29.49,-11.35 -494.76,4.83 -542.31,-4.59 -13.99,-23.78 -8.29,-27.5 -8.29,-76.39 0,-200.81 -22.54,-180.56 77.65,-180.56 117.1,-0.01 234.3,0.46 351.39,0.05l0.97 -136.06c-54.44,-0.11 -406.24,6.46 -429.24,-6.16l-0.69 -388.7c30.37,-15.53 97.43,-7.45 134.68,-7.45 56.02,0 408.71,2.9 414.18,-2.14 6.34,-13.32 5.56,-122.76 -0.12,-138.93 -37.23,-5.16 -673.22,-2.4 -686.76,1.69 -6.84,29.34 -1.86,825.44 -1.86,943.91l-0.14 117.92c1.7,14.86 -1.99,5.64 4.59,13.28 3.01,1.69 663.06,8.16 685.38,1.37z"></path> <path class="fil0" d="M3644.16 813.41c-1.79,-16.46 -0.44,-13.97 4.58,-26.42l43.47 -145.53c6.51,-14.46 11.66,-43.69 16.59,-62.74l13.54 -39.22c0.91,-2.57 6.15,-12.08 6.83,-13.67l39.69 -150.4c5.93,-15.32 -0.22,-16.54 8.54,-29.5 15.72,12.72 47.49,150.95 56.28,174.45l26.3 91.24c5.52,23.91 24.24,66.97 23.61,92.74l-54.56 26.89c-0.81,0.35 -1.73,0.77 -2.54,1.12l-61.41 27.35c-14.96,5.05 -17.75,6.55 -30.43,13.27 -5.85,3.09 -1.92,0.84 -6.93,4.08l-83.57 36.35zm40.45 -689.76c0.82,17.78 -16.61,59.97 -20.38,75.79 -16.78,70.28 -50.21,163.58 -69.41,236.89 -4.87,18.63 -10.32,32.84 -15.19,53.29 -7.25,30.47 -15.05,39.51 -14.1,54.64l-124.67 434.35c-4.46,14.23 -4.55,20.84 -9.58,33.88 -4.21,10.89 -17.98,62.25 -17.63,70.22 25.22,2.09 126.58,5.06 142.97,-1.77 10.77,-8.47 7.45,-19.09 13.67,-36.91 5.07,-14.59 4.82,-32.02 12.33,-41.16 9.78,-11.91 56.59,-32.31 75.09,-35.26l184.48 -80.31c2.72,-13.68 4.38,-7.03 20.56,-14.27 22.2,-9.93 47.88,-28.89 72.26,-25.54l67.26 233.74c25.88,5.32 119.28,2.87 149.78,1.35l-51.87 -174.81c-5.39,-20.52 -7.64,-47.2 -16.23,-62.9 -13.04,-23.79 -16.51,-80.21 -45.38,-142.97l-33.85 -119.94c-5.18,-14.44 -1.64,-12.64 -9.48,-29.9l-67.39 -240.19c-6.48,-22.34 -9.3,-41.41 -16.71,-62l-36.11 -116.2c-9.84,-10.14 -18.81,-53.59 -22.75,-64.11 -5.16,-13.76 -14.59,-44.66 -17.76,-58.69 -19.05,-5.78 -93,-6.53 -107.76,0.91l-27.23 86.47c-5.61,30.41 -9.68,22.29 -14.9,25.39z"></path> <path class="fil0" d="M1183.56 749.65c-8.71,15.61 -33.24,21.56 -49.12,28.31 -7.03,2.99 -7.63,3.33 -15.58,6.53 -18.39,7.42 -46.84,25.17 -69.74,25.81 1.73,-33.2 17.05,-64.03 24.15,-96.05 9.91,-44.68 41.12,-132.95 52.05,-175.13l26.5 -86.12c0.21,-1.43 0.98,-1.71 1.58,-2.48 -4.08,-12.74 21.17,-93.42 29.05,-110.87 20.82,0.04 11.17,13.78 18.41,32.96l18.03 64.49c2.38,10.18 15.45,30.44 17.08,64.38l29.15 98.79c4.91,12.14 3.53,16.45 6.79,28.72 3.07,11.55 5.41,12.39 7.95,23.86 6.11,27.48 12.39,30.17 10.84,52.4l-107.14 44.38zm-309.29 122.66c-1.9,32.13 -57.87,197.8 -55.91,209.81l142.78 1.48 23.73 -68.61c3.75,-16.22 1.88,-15.02 18.39,-18.08l46.33 -24.3c0.67,-0.35 1.52,-0.92 2.19,-1.26 17.14,-8.6 45.01,-14.19 70,-30.79 12.16,-8.08 1.81,-3.44 17.83,-9.05l106.76 -47.71c6.65,-3.75 0.95,-1.26 9.05,-4.28l64.55 -25.96c11.33,-5.36 -6.75,-3.01 12.38,-4 12.92,20.1 8.44,31.1 16.86,49.41 7.15,15.58 0.79,-4.59 5.68,11.13 0.54,1.74 2.58,13.87 2.79,14.91l22.21 82.68c5.05,11.31 16.38,37.71 14.98,52.87 21.59,24.54 -15.99,23.25 69.56,23.24 25.89,0 63.86,2.25 88.25,-1.47 -0.01,-9.59 -2.35,-21.32 -6.31,-31.07l-65.56 -230.58 -66.93 -224.65c-3.62,-10.66 -1.87,-15.83 -6.36,-26.47 -13.61,-32.32 -16.03,-61.24 -29.03,-103.09 -2.56,-8.23 -5.67,-14.51 -8.17,-23.61l-15.13 -52.48c-3.68,-11.29 -6.84,-13.93 -8.94,-22.35 -3,-12.08 -0.65,-15.8 -5.26,-28.04 -5.04,-13.41 -4.02,-9.48 -8.29,-26.79l-37.35 -127.48c-5.14,-12.71 -2.76,-11.97 -6.02,-26.01l-16.74 -50.92c-5.51,-18.56 -8.36,-34.72 -13.76,-54.9 -1.47,-5.47 -13.36,-44.64 -18.46,-48.22 -21.62,-9.02 -81.06,-3.13 -109.16,-2.69l-16.47 49.7c-5.35,18.04 -10.87,37.3 -16.57,54.86l-46.43 164.94c-2.33,11.32 -31.14,78.85 -41.41,136.93l-14.3 53.33c-2.87,10.52 -6.44,14.46 -10.07,24.12l-55.38 195.43c-3.95,11.51 -7.51,7.95 -10.46,23.47l-23.15 84.49c-4.69,18.24 -23.21,59.4 -22.68,82.05z"></path> <path class="fil0" d="M539.97 1558.22l12.22 13.27c2.91,5.23 4.56,10.42 6.71,13.87l109.61 0.46c46.1,0.48 32.18,-3.85 26.07,-41.62 -6.84,-42.3 -53.69,-114.35 -87.32,-149.45 -31.1,-32.45 -43.51,-32.05 -51.55,-46.98 -18.5,-9.32 -13.2,-11.15 -51.34,-28.37 -8.58,-3.88 -19.28,-9.28 -29.36,-12.89 -74.55,-26.74 -179.68,-17.18 -252.87,12.93 -71.65,29.48 -138.36,97.05 -173.61,165.09 -13.59,26.24 -11.15,31.42 -24.75,60.59 -8.95,19.18 -14.26,123.29 -18.16,154.17 -11.36,89.61 -7.21,398.28 28.15,472.59l27.95 57.4c24.81,47.81 81.17,102.07 126.6,126.56l45.15 19.64c27.74,10.23 54.24,17.21 85.93,21.2 46.98,5.9 91.32,-2.26 134.69,-10.27 19.15,-3.54 3.52,-0.73 15.16,-6.12 21.84,-10.12 20.05,0.57 60.91,-24.97 9.69,-6.06 20.24,-8.61 28.47,-14.64 7.66,-5.6 14.18,-13.47 22.79,-19.91 51.38,-38.43 102.63,-116.84 117.75,-181.71 10.97,-47.02 7.36,-37.82 -69.99,-37.82 -124.02,0 -47.49,-1.43 -113.76,75.09 -15.14,17.48 -40.74,39.58 -64.56,52.9 -24.45,13.68 -57.57,21.35 -93.02,21.03 -50.63,-0.46 -55.35,-5.29 -92.67,-24.22 -68.78,-34.87 -71.84,-76.48 -80.81,-91.19 -5.51,-9.03 -11.91,-13.57 -18.07,-42.35 -3.18,-14.87 -2.17,-39.45 -3.31,-55.74 -1.38,-19.78 -6.39,-31.54 -6.94,-53.57 -2.81,-111.32 -6.61,-167.48 0.28,-282.26 1.2,-19.99 5.88,-31.54 6.94,-53.37 3.12,-64.03 9.38,-51.11 13.5,-72.38 9.67,-49.9 51.38,-90.71 95.14,-113.58 56.83,-29.69 110.54,-25.6 168.1,-6.57 18.64,6.17 2.4,0.5 17.69,10.14 15.16,9.55 20.33,8.2 36.87,24.42 14.02,13.75 44.19,51.44 45.41,68.61z"></path> <path class="fil0" d="M3009.9 1455.6l264.55 -1.14c2.31,-11.62 7.31,-138.91 -2.58,-147.49 -9.44,-8.19 -682.48,-5 -688.12,-0.2 -8.56,7.28 -4.79,49.61 -4.79,69.54 0,22.74 -4.93,57.29 3.85,74.96 12.83,3.72 164.35,1.55 198.72,1.55l53.69 -0.05c12.63,1.61 -5.85,-2.14 6.51,1.23 11.62,3.16 4.02,0.7 8.46,3.81 7.97,9.07 3.37,599.07 3.37,693.07 0,51.38 -6.59,192.18 1.65,233.29l126.49 2.06c14.15,-0.77 8.79,1.89 16.7,-4.38 13.07,-13.76 -2.15,-886.71 3.53,-912.89 4.05,-18.66 -4.59,-6.09 7.96,-13.36z"></path> <path class="fil0" d="M1861.83 2.75l-140.56 -1.24c-10.35,61.1 -3.27,196.35 -3.27,268.3 0,107.15 -4.54,802.69 3.1,810.52 18.69,10.65 139.44,3.62 171.65,3.62 71.59,0 486.12,3.23 520.33,-1.19 4.15,-20.33 5.06,-126.07 -1.92,-142.53 -23.39,-4.18 -413.32,-1.22 -479.15,-1.22 -11.95,0 -23.85,0.04 -35.79,0.16 -4.24,0.04 -13.87,0.14 -17.68,-0.53l-11.61 -4.45c-9.44,-18.25 -3.44,-407.59 -3.44,-464.51 0,-77.34 3.99,-420.02 -1.66,-466.94z"></path> <path class="fil0" d="M2570.93 1083.31c40.56,5.3 678.74,1.98 691.01,-1.93l-0.05 -135.87c-31.06,-5.46 -359.18,-2.1 -419.66,-2.1 -14.79,0 -120.99,4.83 -130.26,-4.48 -22.91,-22.96 4.85,-795.92 -6.27,-929.93 -20.43,-4.09 -119.49,-5 -136.84,1.53 -4.35,34.77 -0.67,96.59 -0.67,134.34 0,149.03 -4.42,918.15 2.76,938.43z"></path> <path class="fil0" d="M1861.83 2.75c5.65,46.92 1.66,389.6 1.66,466.94 0,56.92 -6,446.26 3.44,464.51l11.61 4.45c3.81,0.67 13.44,0.56 17.68,0.53 11.94,-0.12 23.84,-0.16 35.79,-0.16 65.83,0 455.76,-2.97 479.15,1.22 6.98,16.46 6.07,122.19 1.92,142.53 -34.22,4.42 -448.74,1.19 -520.33,1.19 -32.21,0 -152.96,7.03 -171.65,-3.62 -7.64,-7.83 -3.1,-703.37 -3.1,-810.52 0,-71.94 -7.08,-207.2 3.27,-268.3 -16.77,3.04 -10.34,16.05 -10.3,57.7 0.16,160.61 -3.76,1020.6 3.31,1027.91 7.63,7.88 526.02,3.65 617.51,3.65 22.01,0 70.21,7.38 84.88,-4.39 10.76,-13.82 7.03,-127.1 2.31,-150.88 -40.53,-14.31 -503.05,6.21 -546.99,-5.35 -6.18,-29.38 -1.57,-750.21 -1.56,-874.51 0.01,-39.49 6.45,-49.48 -8.61,-52.89z"></path> <path class="fil0" d="M4139.11 2383.38l12.5 -3.1 -1.43 -142.72c-71.81,-8.49 -530.54,6.43 -548.16,-4.93 -7.05,-10.23 -5.93,-18.6 -5.68,-31.78 4.62,-233.03 -22.05,-208.49 56.1,-208.43l267.71 0c18.54,0 93.1,4.89 100.83,-4.94 8.13,-6.86 7.43,-123.42 3.03,-140.68 -28.6,-13.25 -413.03,5.56 -425.11,-6.94 -3.77,-9.2 -5.51,-363.53 -0.88,-382.48 31.78,-18.41 466.52,8.5 553.35,-8.58l0.04 -140.73 -13.51 -2.85c5.68,16.18 6.45,125.62 0.12,138.93 -5.48,5.03 -358.17,2.14 -414.18,2.14 -37.25,0 -104.31,-8.09 -134.68,7.45l0.69 388.7c23,12.62 374.79,6.05 429.24,6.16l-0.97 136.06c-117.08,0.4 -234.29,-0.06 -351.39,-0.05 -100.2,0 -77.65,-20.25 -77.65,180.56 0,48.89 -5.7,52.61 8.29,76.39 47.55,9.41 512.83,-6.77 542.31,4.59l-0.57 137.25z"></path> <path class="fil0" d="M3009.9 1455.6c-12.56,7.28 -3.91,-5.3 -7.96,13.36 -5.68,26.18 9.54,899.13 -3.53,912.89 -7.91,6.27 -2.55,3.61 -16.7,4.38l-126.49 -2.06c-8.24,-41.11 -1.65,-181.91 -1.65,-233.29 0,-94 4.6,-684 -3.37,-693.07 -4.44,-3.11 3.16,-0.64 -8.46,-3.81 -12.36,-3.37 6.12,0.38 -6.51,-1.23l-53.69 0.05c-34.38,0 -185.9,2.17 -198.72,-1.55 -8.79,-17.66 -3.85,-52.22 -3.85,-74.96 0,-19.93 -3.77,-62.25 4.79,-69.54 5.64,-4.8 678.68,-7.99 688.12,0.2 9.89,8.58 4.9,135.87 2.58,147.49 13.16,-2.64 8.16,4.37 11.92,-13.56 0.28,-1.31 0.06,-18.98 0.02,-21.7 -0.51,-31.41 2.54,-97 -3.62,-118.92 -34.09,-5.72 -678.32,-5.68 -709.54,0 -3.57,10.93 -9.62,142.29 2.54,153.55 21.78,18.56 221.85,-5.02 268.04,7.5 7.48,15.6 3.3,693.48 3.3,821.62 0,132.89 -17.36,110.14 84.34,110.14 18.16,-0.01 62.75,6.84 72.74,-5.54 11.07,-12 3.75,-409.56 3.75,-461.55 0,-75.52 -4.44,-426.54 1.96,-470.41z"></path> <path class="fil0" d="M1992.42 2047.38c-14.71,0.22 -10.88,-0.56 -22.73,4.42l-12.51 6.11c-15,8.28 -3.72,6.23 -26.42,15.27l-5.02 2.1c-39.08,16.14 -31.5,9.33 -31.49,89.86 0,71.9 -1.25,144.89 0.63,216.63l-136.88 0.18 0.82 -1071.16c107.63,-7 338.66,-0.03 469.47,-0.35 31.02,-0.08 46.39,1.39 75.44,6.54 36.35,6.45 35.95,18.19 60,20.03 -5.02,-8.2 0.56,-3.49 -10.19,-11.06 -30.35,-21.32 -80.17,-24 -118.12,-23.97 -70.4,0.04 -447.66,-3.09 -483.7,1.37 -7.57,32.21 -2.59,468.75 -2.59,540.53l0 474.73c0,11.8 -2.51,59.03 3.44,65.19 7.46,7.73 131.29,4.5 136.32,3.45 12.92,-2.67 4.71,-0.77 8.96,-3.07 15.97,-33.84 -9.06,-259.7 5.93,-286.24 7.71,-12.3 63.64,-29.79 81.78,-44.27 7.22,-5.76 -0.21,2.32 6.86,-6.33z"></path> <path class="fil0" d="M2559.61 1080.39l11.32 2.92c-7.19,-20.28 -2.76,-789.41 -2.76,-938.43 0,-37.75 -3.68,-99.57 0.67,-134.34 17.35,-6.52 116.41,-5.62 136.84,-1.53 11.13,134.01 -16.63,906.96 6.27,929.93 9.28,9.3 115.47,4.48 130.26,4.48 60.48,0 388.6,-3.36 419.66,2.1 -6.3,-15.61 -47.27,-8.27 -62.72,-8.27l-471.29 0.04c-15.75,-2.07 -6.23,1.44 -13.11,-5 -8.62,-9.62 -3.72,-600.35 -3.72,-694.6 0,-61.24 6.73,-181.02 -2.13,-235.34l-148.43 -0.53 -0.88 1078.58z"></path> <path class="fil0" d="M4151.62 2380.28l-12.5 3.1c-22.32,6.79 -682.37,0.32 -685.38,-1.37 -6.58,-7.64 -2.89,1.58 -4.59,-13.28l0.14 -117.92c0,-118.48 -4.98,-914.57 1.86,-943.91 13.54,-4.08 649.54,-6.85 686.76,-1.69l13.51 2.85c-4.66,-10.9 6.12,-11.31 -38.47,-10.82 -106.78,1.18 -658.47,-4.92 -666.83,4.11 -8.92,19.58 -3.63,478.05 -3.63,542.55 0,40.98 -3.36,515.75 1.73,543.81 26.1,9.27 550.21,2.3 672.34,3.95 41.66,0.56 32.6,-2.94 35.06,-11.38z"></path> <path class="fil0" d="M3602.03 2232.62l0.71 -232.63c43.9,-4.52 300.07,-1.31 381.7,-0.96 23.51,0.1 36.42,4.86 46.08,-9.7 7.18,-14.27 4.49,-134.16 -1.02,-151.2l-425.69 -1.2 -1.12 -377.82 521.14 -0.8c16.4,0.16 24.54,3.46 27.56,-9.52 -86.83,17.08 -521.58,-9.83 -553.35,8.58 -4.63,18.95 -2.89,373.28 0.88,382.48 12.08,12.5 396.51,-6.3 425.11,6.94 4.4,17.26 5.1,133.81 -3.03,140.68 -7.73,9.83 -82.29,4.94 -100.83,4.94l-267.71 0c-78.16,-0.06 -51.48,-24.6 -56.1,208.43 -0.26,13.17 -1.38,21.55 5.68,31.78z"></path> <path class="fil0" d="M3261.88 945.51l0.05 135.87c-12.27,3.91 -650.45,7.23 -691.01,1.93l-11.32 -2.92c3.78,11.13 -6.19,11.53 36.27,10.78 184.86,-3.24 394.12,-0.08 581.86,-0.08 113.83,0 90.2,22.35 91.26,-118.14 0.05,-6.35 0.58,-15.77 0.21,-21.73 -0.85,-14.1 1.85,-9.2 -4.53,-15.28 -9.99,-9.7 -238.65,-4.47 -268.98,-4.47 -41.53,0 -256.02,2.94 -278.41,-1.96 -4.92,-23.92 -0.97,-750.25 -0.88,-870.31l0.13 -42.97c-3.6,-18.51 1.97,-7.57 -7.62,-13.89 8.86,54.33 2.13,174.11 2.13,235.34 0,94.25 -4.9,684.98 3.72,694.6 6.88,6.44 -2.64,2.92 13.11,5l471.29 -0.04c15.45,0 56.42,-7.35 62.72,8.27z"></path> <path class="fil0" d="M1903.19 1922.95c-4.62,-40.26 -3.36,-455.93 1.83,-462.92 13.93,-12.16 134.58,-4.33 162.63,-4.33 55.93,0 112,-0.38 167.92,-0.09 67.57,0.36 63.6,38.63 64.77,102.74 1,54.59 2.56,112.56 -7.64,164.35 4.94,-3.02 7.03,-0.11 11.37,-17.41l6.02 -57.58c0.83,-29.81 1.04,-59.64 0.17,-89.45 -1.65,-56.98 -1.91,-106.79 -64.67,-109.32 -38.41,-1.56 -333.75,-3.98 -344.14,3.5 -9.32,8.51 -6.8,12 -6.73,27.21l-0.23 417.98c-0.13,27.33 3.24,23.02 8.69,25.32z"></path> <path class="fil0" d="M3657.7 967.61c-18.5,2.95 -65.31,23.35 -75.09,35.26 -7.51,9.14 -7.26,26.57 -12.33,41.16 -6.21,17.81 -2.9,28.43 -13.67,36.91 -16.38,6.83 -117.74,3.86 -142.97,1.77 -0.36,-7.97 13.42,-59.33 17.63,-70.22 5.03,-13.04 5.12,-19.65 9.58,-33.88l124.67 -434.35c-11.86,6.26 -11.61,15.71 -14.77,29.52l-30.11 103.26c-5.72,23.97 -12.72,47.1 -20.25,69.41 -7.99,23.66 -12.12,46.48 -19.84,69.45l-18.79 68.07c-2.52,6.87 -3.82,6.35 -6.09,14.59l-44.73 156.02c-10.66,40.88 -21.85,35.73 70.19,35.73 26.36,0 55.22,1.15 81.27,-0.8 12.96,-18.21 16.86,-61.17 26.97,-79.43 15.16,-27.41 56.23,-15.05 68.32,-42.47z"></path> <path class="fil0" d="M3842.18 887.3c46.03,-8.85 61.63,-35.67 88.69,-26.25 0.33,18.81 24.03,91.99 30.56,113.37 10.09,33.03 19.29,87.56 34.98,114.9l141.83 1.24c16.34,-1.47 10.43,2.58 13.79,-7.97 -30.5,1.52 -123.89,3.97 -149.78,-1.35l-67.26 -233.74c-24.38,-3.35 -50.06,15.61 -72.26,25.54 -16.18,7.24 -17.84,0.58 -20.56,14.27z"></path> <path class="fil0" d="M1183.56 749.65c-31.33,4.86 -94.97,46.38 -125.35,50.91 0.97,-11.31 8.37,-38.47 12.24,-50.55l50.75 -170.03c7.74,-33.37 35.66,-108.21 32.2,-129.45 -0.6,0.78 -1.38,1.05 -1.58,2.48l-26.5 86.12c-10.93,42.18 -42.13,130.44 -52.05,175.13 -7.1,32.02 -22.42,62.85 -24.15,96.05 22.9,-0.64 51.36,-18.39 69.74,-25.81 7.95,-3.2 8.54,-3.55 15.58,-6.53 15.88,-6.75 40.41,-12.69 49.12,-28.31z"></path> <path class="fil0" d="M1003.26 996.92c-16.51,3.07 -14.64,1.86 -18.39,18.08l-23.73 68.61 -142.78 -1.48c-1.96,-12.01 54,-177.68 55.91,-209.81 -10.97,6.06 -7.89,7.52 -11.61,24.49l-47.99 161.09c-7.24,22.45 -5.07,31.34 14.13,32.72l141.62 -1.3c5.99,-20.13 17.54,-72.14 30.61,-89.55 0.55,-0.74 1.53,-1.87 2.23,-2.84z"></path> <path class="fil0" d="M539.97 1558.22c2.52,15.67 6.68,23.7 14.3,35.3 23.29,2.16 133.24,3.58 151.47,-1.4 9.21,-30.4 -22,-102.49 -37.02,-131.27l-79.97 -94.45c-10.48,-10.22 -14.3,-17.01 -33.04,-18.63 8.04,14.93 20.44,14.52 51.55,46.98 33.63,35.09 80.48,107.15 87.32,149.45 6.1,37.77 20.03,42.11 -26.07,41.62l-109.61 -0.46c-2.15,-3.45 -3.8,-8.64 -6.71,-13.87l-12.22 -13.27z"></path> <path class="fil0" d="M2427.24 2291.36c0.95,28.21 32.79,71.26 32.64,91 -25.96,3.32 -131.39,3.82 -151.71,-1.03 -3.46,-5.66 -14.51,-32.78 -17.14,-40.98l-43.75 -95.49c-5.19,-13.44 5.16,-16.49 -11.41,-19.01 6.9,33.96 34.84,87.45 50.1,124.28 7.81,18.86 11.33,31.86 20.76,36.89 17.71,9 131.94,4.49 160.14,2.21 1.92,-11.66 0.68,-19.46 -4.36,-29.92l-26.91 -58.22c-6.43,-10.33 -3.16,-4.73 -8.37,-9.72z"></path> <path class="fil0" d="M1394.87 1060.57c-1.52,37.75 7.45,30.01 69.56,30.01 126.43,0.01 99.26,13.29 80.87,-70.86 -5.09,-23.34 -14.37,-43.3 -19.9,-65.3l-33.51 -114.77c-4.55,-17.79 1.96,-12.47 -11.09,-18.95l65.56 230.58c3.96,9.75 6.3,21.48 6.31,31.07 -24.38,3.72 -62.35,1.47 -88.25,1.47 -85.55,0.01 -47.96,1.3 -69.56,-23.24z"></path> <path class="fil0" d="M3684.61 123.65c5.22,-3.1 9.29,5.01 14.9,-25.39l27.23 -86.47c14.76,-7.45 88.71,-6.69 107.76,-0.91 3.17,14.02 12.6,44.92 17.76,58.69 3.93,10.52 12.91,53.97 22.75,64.11 -0.48,-18.64 -7.98,-55.13 -15.44,-71.52 -6.97,-15.34 -12.66,-46.42 -21.51,-59.19 -21.9,-4.57 -101.07,-3.68 -123.04,1.47 -1.16,34.1 -22.96,84.35 -30.42,119.22z"></path> <path class="fil0" d="M1153.4 450.53c12.5,-11.62 17.21,-64.49 31.95,-92.11 10.07,11.97 13.76,35.31 17.81,50.08l24.06 84.13c4.67,8.49 1.78,3.78 8.74,8.87 -1.64,-33.94 -14.7,-54.2 -17.08,-64.38l-18.03 -64.49c-7.24,-19.18 2.4,-32.93 -18.41,-32.96 -7.87,17.45 -33.12,98.13 -29.05,110.87z"></path> </g> </g> </g> </svg> 