<?xml version="1.0" encoding="UTF-8"?> <!-- Creator: CorelDRAW 2018 (64-Bit) --> <svg xmlns="http://www.w3.org/2000/svg" xmlns:xlink="http://www.w3.org/1999/xlink" xmlns:xodm="http://www.corel.com/coreldraw/odm/2003" xml:space="preserve" width="69.8648mm" height="17.5446mm" style="shape-rendering:geometricPrecision; text-rendering:geometricPrecision; image-rendering:optimizeQuality; fill-rule:evenodd; clip-rule:evenodd" viewBox="0 0 7005.09 1759.13"> <defs> <style type="text/css"> <![CDATA[ .fil0 {fill:#FEFEFE;fill-rule:nonzero} ]]> </style> </defs> <g id="Слой_x0020_1"> <metadata id="CorelCorpID_0Corel-Layer"></metadata> <g id="_2438383298672"> <g id="_2912002091680"> <path id="svg_1" class="fil0" d="M1997.5 1522.61c7.39,178.31 159.83,236.52 315.97,236.52 153.37,0 306.74,-57.28 306.74,-234.67 0,-124.73 -105.33,-163.53 -213.43,-188.48 -105.33,-24.02 -208.8,-33.26 -208.8,-99.78 0,-54.51 60.98,-61.9 102.55,-61.9 66.53,0 121.04,19.4 125.65,90.54l175.55 0c-13.86,-164.46 -149.68,-214.35 -296.58,-214.35 -144.13,0 -291.96,44.35 -291.96,216.19 0,118.26 106.25,155.22 213.43,179.25 132.12,28.64 208.8,48.04 208.8,103.47 0,65.59 -67.45,85.93 -121.03,85.93 -72.99,0 -140.44,-32.35 -141.37,-112.72l-175.54 0 0 0 0 0zm710.49 218.04l184.78 0 0 -671.68 -184.78 0 0 671.68zm0 -776.08l184.78 0 0 -151.52 -184.78 0 0 151.52 0 0zm271.62 776.08l184.78 0 0 -389.89c0,-131.2 88.7,-154.3 124.73,-154.3 117.34,0 111.8,89.62 111.8,167.23l0 376.95 184.78 0 0 -374.18c0,-85 19.4,-170 122.88,-170 105.33,0 113.64,73.92 113.64,163.53l0 380.65 184.78 0 0 -449.95c0,-173.69 -102.55,-240.22 -245.75,-240.22 -94.24,0 -164.46,53.59 -203.26,111.8 -36.04,-80.38 -111.8,-111.8 -195.87,-111.8 -86.85,0 -157.07,40.66 -205.11,109.03l-2.77 0 0 -90.55 -174.62 0 0 671.68 0 0 0 0zm1061.58 -335.38c0,213.43 136.73,353.86 347.39,353.86 211.57,0 348.32,-140.43 348.32,-353.86 0,-214.35 -136.74,-354.78 -348.32,-354.78 -210.66,0 -347.39,140.43 -347.39,354.78zm184.78 0c0,-108.1 37.88,-215.27 162.61,-215.27 125.65,0 163.53,107.17 163.53,215.27 0,107.17 -37.88,214.35 -163.53,214.35 -124.73,0 -162.61,-107.17 -162.61,-214.35zm579.29 335.38l184.78 0 0 -352.01c0,-136.74 42.5,-192.18 143.21,-192.18 85.93,0 118.26,54.51 118.26,164.46l0 379.73 184.78 0 0 -412.99c0,-166.3 -49.89,-277.18 -245.76,-277.18 -78.53,0 -158.91,36.04 -206.03,111.8l-3.7 0 0 -93.32 -175.55 0 0 671.68zm1370.16 -291.03c12.94,-206.96 -97.93,-399.13 -326.14,-399.13 -204.18,0 -343.69,153.37 -343.69,354.78 0,207.88 131.19,353.86 343.69,353.86 151.52,0 262.39,-67.45 314.13,-226.36l-162.61 0c-11.09,41.58 -71.14,86.85 -145.06,86.85 -103.47,0 -159.83,-52.66 -165.38,-170l485.05 0zm-485.05 -117.33c2.77,-51.75 36.04,-142.29 153.37,-142.29 89.62,0 130.28,48.97 146.9,142.29l-300.27 0zm561.74 408.36l184.78 0 0 -927.6 -184.78 0 0 927.6 0 0zm284.56 0l183.86 0 0 -927.6 -183.86 0 0 927.6 0 0zm284.57 0l183.86 0 0 -671.68 -183.86 0 0 671.68zm0 -776.08l183.86 0 0 -151.52 -183.86 0 0 151.52 0 0zm-4791.4 -274.41l184.78 0 0 -352.01c0,-136.74 42.49,-192.18 143.2,-192.18 85.93,0 118.26,54.51 118.26,164.46l0 379.73 183.86 0 0 -412.99c0,-166.3 -48.97,-277.18 -244.84,-277.18 -78.53,0 -158.91,36.96 -206.03,111.8l-3.7 0 0 -93.32 -175.54 0 0 671.68zm1324.89 -671.68l-184.79 0 0 352.02c0,136.73 -43.42,192.17 -143.2,192.17 -85.93,0 -118.26,-54.5 -118.26,-164.46l0 -379.73 -184.78 0 0 412.99c0,166.31 49.89,277.18 245.76,277.18 78.53,0 158.91,-36.04 205.1,-111.79l4.62 0 0 93.31 175.55 0 0 -671.68 0 0zm29.56 336.3c0,213.43 135.82,353.86 346.47,353.86 212.5,0 348.32,-140.43 348.32,-353.86 0,-214.34 -135.81,-354.78 -348.32,-354.78 -210.65,0 -346.47,140.44 -346.47,354.78zm183.86 0c0,-107.17 37.88,-215.27 162.61,-215.27 126.58,0 164.46,108.1 164.46,215.27 0,107.17 -37.88,214.35 -164.46,214.35 -124.73,0 -162.61,-107.17 -162.61,-214.35zm1153.04 -336.3l-182.94 0 -142.28 459.19 -2.78 0 -141.36 -459.19 -193.09 0 230.05 671.68 205.1 0 227.28 -671.68 0 0 0 0zm391.74 412.06c0,40.66 -4.62,154.3 -148.76,154.3 -60.05,0 -113.63,-16.63 -113.63,-85.01 0,-68.37 52.66,-87.77 109.02,-98.85 57.28,-11.09 122.88,-12.01 153.37,-39.74l0 69.29 0 0zm-241.14 -205.1c6.47,-72.99 51.74,-101.63 121.95,-101.63 64.67,0 119.19,12.01 119.19,90.54 0,75.76 -104.4,72.07 -218.04,88.7 -114.56,15.71 -229.14,51.74 -229.14,204.18 0,137.67 101.63,201.42 229.14,201.42 82.23,0 168.15,-22.17 226.35,-83.15 0.92,22.17 6.47,44.35 12.93,64.67l187.56 0c-17.56,-26.79 -24.02,-87.77 -24.02,-148.75l0 -350.16c0,-160.77 -160.76,-191.26 -294.72,-191.26 -150.6,0 -305.82,52.67 -315.98,225.44l184.78 0 0 0z"></path> <path id="svg_2" class="fil0" d="M1396.03 353.86l-788.1 0 0 9.24 834.3 785.33c18.48,14.78 30.49,28.64 48.97,39.73 7.39,-24.02 7.39,-82.23 7.39,-82.23l0 -1068.04 312.28 0 -0.92 1396.95c-23.1,121.03 -118.26,248.53 -245.76,275.32 -90.54,15.71 -115.49,13.87 -115.49,13.87l-1032.01 0 0 -303.05 814.89 0 3.69 -2.78 -114.56 -115.49 -792.72 -739.12 -6.47 19.4 0 1140.1c-108.1,0 -212.49,0.93 -321.51,0.93l0 -1376.64c11.08,-109.02 67.44,-213.42 167.22,-269.78 46.19,-24.02 98.86,-33.26 151.52,-42.5l1077.28 0 0 318.75 0 0z"></path> </g> </g> </g> </svg> 