<?xml version="1.0" encoding="UTF-8"?> <!-- Creator: CorelDRAW 2018 (64-Bit) --> <svg xmlns="http://www.w3.org/2000/svg" xmlns:xlink="http://www.w3.org/1999/xlink" xmlns:xodm="http://www.corel.com/coreldraw/odm/2003" xml:space="preserve" width="90.1695mm" height="14.2686mm" style="shape-rendering:geometricPrecision; text-rendering:geometricPrecision; image-rendering:optimizeQuality; fill-rule:evenodd; clip-rule:evenodd" viewBox="0 0 9041.27 1430.71"> <defs> <style type="text/css"> <![CDATA[ .fil0 {fill:#FEFEFE} ]]> </style> </defs> <g id="Слой_x0020_1"> <metadata id="CorelCorpID_0Corel-Layer"></metadata> <g id="_2438383336976"> <g id="_2947885333792"> <path class="fil0" d="M1988.4 1208.85c-0.39,-1.06 0.21,-3.58 36.02,-153.84 35.81,-150.26 106.81,-448.26 149.41,-598.9 42.61,-150.64 56.83,-153.91 103.88,-153.91 47.04,0 126.9,3.28 234.11,8.2 107.21,4.92 241.77,11.49 326.15,21.6 84.37,10.13 118.54,23.8 149.17,46.23 30.63,22.42 57.72,53.6 71.26,94.91 13.55,41.29 13.55,92.71 -14.35,152.33 -27.91,59.62 -83.7,127.44 -141.89,176.45 -58.22,49.01 -118.82,79.21 -185.01,94.51 -66.18,15.32 -137.95,15.76 -173.83,15.97 -35.89,0.22 -35.89,0.22 -50.1,-24.95 -14.23,-25.16 -42.66,-75.48 -56.88,-99 -14.23,-23.52 -14.23,-20.23 -13.68,-20.23 0.55,0 1.64,-3.29 26.8,-1.64 25.17,1.64 74.39,8.2 121.99,4.37 47.59,-3.82 93.53,-18.05 129.63,-37.74 36.11,-19.69 62.36,-44.84 76.58,-77.13 14.23,-32.27 16.41,-71.64 14.78,-102.83 -1.64,-31.18 -7.12,-54.15 -19.69,-68.92 -12.59,-14.77 -32.28,-21.34 -92.44,-24.62 -60.17,-3.28 -160.82,-3.28 -213.33,-1.64 -52.51,1.64 -56.89,4.92 -84.79,133.47 -27.9,128.54 -79.31,382.34 -105.02,507.6 -25.71,125.27 -25.71,121.99 -24.06,120.34 1.63,-1.64 4.92,-1.64 -38.4,-3.1 -43.33,-1.44 -133.24,-4.34 -178.89,-5.6 -45.64,-1.26 -47.02,-0.87 -47.4,-1.95z"></path> <path class="fil0" d="M3046.95 1224.32c-1.71,-0.78 -1.31,-2.44 35.89,-155.6 37.2,-153.15 111.18,-457.8 147.64,-611.22 36.45,-153.42 35.36,-155.61 54.5,-157.25 19.15,-1.63 58.53,-2.73 150.97,-2.73 92.45,0 237.93,1.09 338.58,6.56 100.65,5.47 156.44,15.31 199.66,33.36 43.21,18.06 73.84,44.31 100.09,74.4 26.26,30.08 48.14,63.99 54.71,102.83 6.56,38.84 -2.19,82.6 -22.43,124.72 -20.23,42.12 -51.96,82.59 -89.7,112.67 -37.75,30.09 -81.5,49.78 -105.57,62.36 -24.06,12.58 -28.45,18.05 -29.54,30.08 -1.09,12.03 1.09,30.63 38.83,92.99 37.74,62.36 111.05,168.47 147.15,222.63 36.1,54.15 35,56.34 34.46,57.43 -0.55,1.09 -0.55,1.09 -54.71,2.73 -54.15,1.64 -162.45,4.93 -217.14,6.57 -54.71,1.64 -55.8,1.64 -56.34,0.55 -0.55,-1.09 -0.55,-3.29 -50.33,-81.51 -49.77,-78.22 -149.33,-232.47 -198,-309.05 -48.68,-76.58 -46.5,-75.47 -45.4,-74.93 1.09,0.55 1.09,0.55 31.17,2.74 30.08,2.19 90.24,6.57 142.76,-0.55 52.5,-7.11 97.35,-25.71 130.72,-50.33 33.37,-24.61 55.25,-55.23 65.55,-86.44 10.29,-31.21 8.98,-63.02 -1.96,-92.01 -10.94,-28.99 -31.51,-55.18 -67.52,-68.82 -36,-13.64 -87.42,-14.73 -141.57,-14.18 -54.15,0.55 -111.02,2.73 -138.91,3.82 -27.91,1.09 -26.81,1.09 -26.26,1.63 0.54,0.55 0.54,1.64 -25.6,128.33 -26.15,126.67 -78.43,378.93 -105.1,505.21 -26.66,126.3 -27.7,126.61 -28.36,126.83 -0.66,0.23 -0.94,0.37 -44.02,1.47 -43.08,1.11 -128.96,3.22 -173.81,4.31 -44.85,1.09 -48.68,1.18 -50.4,0.4z"></path> <path class="fil0" d="M5118.96 301.11c-63.45,-14.77 -144.4,-27.88 -228.91,-28.72 -84.51,-0.82 -172.57,10.66 -261.18,43.48 -88.62,32.82 -177.78,86.97 -249.71,164.91 -71.93,77.96 -126.62,179.7 -153.42,267.21 -26.81,87.53 -25.72,160.83 -2.2,222.64 23.51,61.81 69.47,112.13 130.73,149.87 61.26,37.74 137.84,62.9 227.55,77.13 89.7,14.22 192.54,17.5 282.24,3.28 89.71,-14.23 166.28,-45.94 230.28,-79.31 63.99,-33.37 115.41,-68.37 167.38,-135.1 51.97,-66.73 104.47,-165.19 127.44,-249.43 22.98,-84.23 16.41,-154.24 -7.65,-216.6 -24.07,-62.36 -65.64,-117.05 -109.4,-152.61 -43.76,-35.56 -89.7,-51.97 -153.15,-66.74zm-411.08 153.18c-42.41,22.45 -83.47,53.68 -119.57,98.26 -36.11,44.58 -67.25,102.52 -82.82,167.56 -15.57,65.08 -15.57,137.28 5.78,195.26 21.33,57.99 63.98,101.74 111.58,126.36 47.59,24.62 100.1,30.09 159.72,19.69 59.62,-10.4 126.36,-36.64 180.51,-80.41 54.15,-43.76 95.71,-105.02 122.52,-168.47 26.8,-63.45 38.83,-129.09 36.11,-181.05 -2.75,-51.96 -20.24,-90.24 -48.68,-124.16 -28.45,-33.91 -67.83,-63.45 -108.85,-79.86 -41.03,-16.41 -83.69,-19.68 -126.9,-14.49 -43.22,5.19 -86.97,18.86 -129.38,41.31z"></path> <path class="fil0" d="M5435.32 1219.95c-0.07,-0.27 0.03,-0.64 33.94,-154.35 33.92,-153.7 101.64,-460.74 136.06,-614.26 34.4,-153.51 35.5,-153.51 35.5,-152.97 0,0.55 -1.09,1.64 49.23,2.19 50.33,0.55 152.06,0.55 203.48,1.64 51.42,1.09 52.51,3.29 78.22,80.96 25.71,77.68 76.03,230.83 100.65,307.95 24.62,77.12 23.51,78.22 22.97,78.76 -0.55,0.55 -0.55,0.55 9.29,0.55 9.85,0 29.54,0 39.39,0 9.85,0 9.85,0 8.21,0 -1.64,0 -4.92,0 58.53,-78.76 63.45,-78.77 193.63,-236.3 258.72,-314.52 65.1,-78.22 65.1,-77.13 64.54,-77.68 -0.55,-0.54 -1.64,-2.73 47.04,-3.28 48.68,-0.54 147.15,0.55 195.83,1.09 48.68,0.55 47.59,0.55 46.5,2.74 -1.1,2.19 -2.2,6.57 -35,160.27 -32.83,153.7 -97.37,456.73 -130.19,608.79 -32.82,152.07 -33.91,153.16 -33.91,152.61 0,-0.54 1.09,-2.73 -44.31,-3.82 -45.39,-1.09 -137.3,-1.09 -183.78,-1.09 -46.49,0 -47.58,0 -48.68,0.54 -1.09,0.55 -2.19,1.64 24.63,-94.63 26.8,-96.27 81.48,-289.9 108.83,-387.81 27.35,-97.9 27.35,-100.09 27.91,-100.64 0.54,-0.54 1.63,0.55 -13.13,0.55 -14.78,0 -45.4,-1.09 -60.72,-0.55 -15.31,0.55 -15.31,2.74 -15.31,4.37 0,1.64 0,2.74 -41.56,58.53 -41.57,55.79 -124.72,166.29 -165.75,223.17 -41.02,56.89 -39.93,60.16 -39.38,61.81 0.54,1.64 0.54,1.64 -32.82,1.64 -33.37,0 -100.11,0 -133.47,-1.09 -33.37,-1.09 -33.37,-3.29 -33.37,-2.75 0,0.55 0,3.84 -16.41,-56.33 -16.41,-60.17 -49.22,-183.78 -64.54,-244.5 -15.31,-60.71 -13.13,-58.53 -13.67,-59.08 -0.55,-0.54 -3.83,-3.82 -15.87,-5.46 -12.03,-1.64 -32.81,-1.64 -42.65,-1.64 -9.85,0 -8.75,0 -31.73,101.19 -22.98,101.19 -70.02,303.58 -92.44,404.78 -22.43,101.19 -20.24,101.19 -59.51,101.27 -39.27,0.09 -119.99,0.26 -160.46,0.26 -40.48,0 -40.72,-0.17 -40.78,-0.44z"></path> <path class="fil0" d="M6774.34 1212.54c-39.17,-3.6 -38.71,-4.23 -38.42,-4.64 0.29,-0.41 0.44,-0.61 107.43,-150.72 106.99,-150.11 320.81,-450.13 427.73,-600.68 106.92,-150.55 106.92,-151.66 108.56,-151.66 1.63,0 4.92,1.1 55.25,0.55 50.32,-0.55 147.69,-2.74 195.28,-3.29 47.59,-0.54 45.39,0.55 44.85,0 -0.55,-0.54 0.54,-2.73 36.11,149.88 35.56,152.61 105.56,460.01 140.02,613.17 34.46,153.16 33.37,152.07 32.28,151.52 -1.09,-0.55 -2.19,-0.55 -95.72,0.55 -93.54,1.09 -279.51,3.28 -374.69,3.28 -95.18,0 -99.56,-2.19 -102.29,-2.74 -2.74,-0.54 -3.84,0.55 -21.89,-32.28 -18.05,-32.81 -53.05,-99.55 -69.47,-132.37 -16.4,-32.82 -14.22,-31.73 -14.22,-31.73 0,0 -2.19,-1.09 57.99,-1.09 60.16,0 182.69,1.09 242.31,2.74 59.62,1.64 56.34,3.83 56.34,3.83 0,0 3.28,-2.19 -8.75,-83.15 -12.03,-80.95 -39.38,-240.66 -53.6,-320.53 -14.22,-79.85 -15.31,-79.85 -16.96,-80.41 -1.64,-0.54 -3.83,-1.63 -11.49,-2.19 -7.66,-0.54 -20.79,-0.54 -27.9,-0.54 -7.11,0 -8.2,0 -8.75,-0.55 -0.54,-0.54 -0.54,-1.63 -78.77,112.13 -78.22,113.77 -234.66,342.41 -311.79,456.73 -77.13,114.33 -74.93,114.33 -73.84,115.42 1.09,1.09 1.09,3.29 -38.28,1.09 -39.39,-2.19 -118.16,-8.75 -157.31,-12.34z"></path> <path class="fil0" d="M9041.06 362.92c-0.64,-1.97 -2.57,-2.63 -44.13,-16.85 -41.57,-14.22 -122.8,-42 -212.1,-56.99 -89.29,-14.99 -186.66,-17.18 -276.91,-3.51 -90.25,13.69 -173.4,43.22 -254.35,98.45 -80.96,55.26 -159.72,136.21 -210.04,219.35 -50.33,83.14 -72.2,168.47 -72.2,246.68 0,78.22 21.88,149.34 67.28,207.32 45.4,57.99 114.32,102.83 198.01,129.09 83.69,26.26 182.15,33.92 293.2,21.88 111.03,-12.03 234.65,-43.75 293.18,-58.53 58.53,-14.76 51.97,-12.57 50.87,-11.48 -1.09,1.09 3.29,1.09 11.49,-30.63 8.2,-31.73 20.24,-95.18 26.22,-127.28 5.99,-32.1 5.92,-32.86 5.92,-33.41 0,-0.54 0.07,-0.88 -7.82,2.64 -7.91,3.53 -23.76,10.91 -61.79,27.58 -38.02,16.68 -98.18,42.67 -182.15,55.94 -83.97,13.27 -191.73,13.82 -262.56,-1.23 -70.83,-15.04 -104.74,-45.67 -127.17,-84.51 -22.43,-38.84 -33.37,-85.88 -36.1,-134.01 -2.74,-48.14 2.73,-97.37 23.51,-146.04 20.79,-48.68 56.88,-96.82 102.3,-140.58 45.4,-43.76 100.09,-83.14 178.31,-99.55 78.22,-16.41 179.96,-9.85 244.52,0.54 64.53,10.4 91.89,24.62 120.52,46.4 28.63,21.79 58.53,51.14 73.85,67 15.31,15.86 16.03,18.24 16.95,19.97 0.91,1.73 2.01,2.83 8.79,-28.9 6.8,-31.74 19.29,-96.27 25.85,-130.19 6.57,-33.91 7.21,-37.2 6.57,-39.17z"></path> <path class="fil0" d="M848.57 430.68c-41.16,-16.96 -123.21,-50.87 -189.78,-97.62 -66.58,-46.77 -117.7,-106.37 -152.15,-153.95 -34.46,-47.59 -52.28,-83.16 -62.83,-102.04 -10.54,-18.88 -13.83,-21.07 -29.14,-15.05 -15.32,6.02 -42.66,20.24 -82.05,44.31 -39.39,24.07 -90.79,57.98 -146.58,128.55 -55.8,70.56 -115.97,177.78 -149.88,278.42 -33.91,100.65 -41.57,194.72 -32.82,287.15 8.75,92.45 33.91,183.25 76.58,259.29 42.66,76.02 102.84,137.29 149.33,181.05 46.5,43.77 79.31,70.02 96.27,83.14 16.96,13.13 18.05,13.13 19.14,13.68 1.1,0.54 2.2,1.64 0.55,-25.71 -1.64,-27.35 -6.02,-83.14 -5.46,-147.14 0.54,-64 6.02,-136.21 28.45,-206.78 22.42,-70.55 61.8,-139.48 105.56,-199.65 43.76,-60.16 91.89,-111.57 142.21,-155.88 50.34,-44.31 102.83,-81.5 142.21,-104.47 39.39,-22.98 65.64,-31.74 85.46,-37.75 19.83,-6.02 33.24,-9.31 39.8,-10.95 6.57,-1.63 6.29,-1.63 -34.86,-18.59z"></path> <path class="fil0" d="M964.38 53.38c39.93,31.73 105.57,83.13 146.05,138.38 40.47,55.25 55.79,114.33 64.54,176.13 8.74,61.82 10.94,126.36 -2.2,189.26 -13.13,62.91 -41.56,124.17 -95.9,182.91 -54.34,58.76 -134.55,115.01 -194.72,166.42 -60.17,51.42 -100.29,98.01 -122.54,134.43 -22.24,36.43 -26.62,62.68 -27.71,125.58 -1.09,62.91 1.09,162.47 2.74,212.78 1.63,50.33 2.74,51.43 2.74,51.43 0,0 -1.1,-1.1 22.43,-1.1 23.51,0 71.64,1.1 135.1,-14.77 63.45,-15.86 142.21,-48.67 207.86,-90.24 65.64,-41.58 118.15,-91.9 166.83,-149.88 48.68,-57.99 93.53,-123.62 121.98,-196.37 28.45,-72.76 40.48,-152.62 42.66,-236.31 2.2,-83.68 -5.46,-171.2 -27.9,-249.42 -22.43,-78.21 -59.62,-147.14 -111.03,-210.04 -51.42,-62.9 -117.06,-119.78 -185.98,-166.29 -68.93,-46.5 -141.13,-82.59 -177.23,-100.64 -36.11,-18.05 -36.11,-18.05 -29,-12.04 7.11,6.03 21.34,18.05 61.26,49.78z"></path> </g> </g> </g> </svg> 