<?xml version="1.0" encoding="UTF-8"?> <svg xmlns="http://www.w3.org/2000/svg" height="512px" viewBox="0 0 60 60" width="512px"> <g> <g id="Page-1" fill="none" fill-rule="evenodd"> <g id="004---Espresso-Machine" fill="rgb(0,0,0)" fill-rule="nonzero"> <path id="Shape" d="m11 50h-5v-2c0-.5522847-.44771525-1-1-1s-1 .4477153-1 1v3c0 .5522847.44771525 1 1 1h6c.5522847 0 1-.4477153 1-1s-.4477153-1-1-1z" data-original="#000000" class="active-path" data-old_color="#000000" fill="#FFFFFF"></path> <path id="Shape" d="m2 21v21c-1.1045695 0-2 .8954305-2 2v7c.00330612 2.7600532 2.23994685 4.9966939 5 5v1c0 1.6568542 1.34314575 3 3 3h6c1.6568542 0 3-1.3431458 3-3v-1h26v1c0 1.6568542 1.3431458 3 3 3h6c1.6568542 0 3-1.3431458 3-3v-1c2.7600532-.0033061 4.9966939-2.2399468 5-5v-7c0-1.1045695-.8954305-2-2-2v-21c1.1045695 0 2-.8954305 2-2v-7c-.0029983-2.37510083-1.6735832-4.42156735-4-4.9v-4.1c0-1.65685425-1.3431458-3-3-3h-1c-1.2667854.00525139-2.3937454.80564914-2.816 2h-38.368c-.4222546-1.19435086-1.54921457-1.99474861-2.816-2h-1c-1.65685425 0-3 1.34314575-3 3v4.1c-2.3264168.47843265-3.99700171 2.52489917-4 4.9v7c0 .530433.21071368 1.0391408.58578644 1.4142136.37507276.3750727.88378058.5857864 1.41421356.5857864zm13 36c0 .5522847-.4477153 1-1 1h-6c-.55228475 0-1-.4477153-1-1v-1h8zm38 0c0 .5522847-.4477153 1-1 1h-6c-.5522847 0-1-.4477153-1-1v-1h8zm5-6c0 1.6568542-1.3431458 3-3 3h-50c-1.65685425 0-3-1.3431458-3-3v-7h56zm-49-14v-4h14v4c-.0033061 2.7600532-2.2399468 4.9966939-5 5h-4c-2.7600532-.0033061-4.99669388-2.2399468-5-5zm18.23-3c.4481282.0087707.8385859.3076895.964.738.1885938.5581252.0942426 1.1730862-.253 1.649-.7884988.8181991-1.8532644 1.3136876-2.987 1.39.0299772-.257925.0453351-.5173397.046-.777v-3zm28.77 8h-33.11c.6307183-.6167599 1.1395933-1.3468259 1.5-2.152 2.339-.182 4.2-.986 5.155-2.263.7176931-.9689474.9329262-2.2210102.58-3.374-.3618686-1.3015471-1.5441-2.2044534-2.895-2.211h-2.508c-.3544126-.6167513-1.0106732-.997855-1.722-1h-14c-1.1045695 0-2 .8954305-2 2v4c-.00024724 1.8831202.76072721 3.6863772 2.11 5h-5.11v-21h4v2c0 1.6568542 1.34314575 3 3 3h10c1.6568542 0 3-1.3431458 3-3v-2h12v2c.0052514 1.2667854.8056491 2.3937454 2 2.816v3.184c.0074684.969781.4822018 1.8764286 1.275 2.435-.716136 2.0691224-.0027195 4.3634989 1.760457 5.6617005 1.7631764 1.2982015 4.1659096 1.2982015 5.929086 0 1.7631765-1.2982016 2.476593-3.5925781 1.760457-5.6617005.7927982-.5585714 1.2675316-1.465219 1.275-2.435v-3.184c1.1943509-.4222546 1.9947486-1.5492146 2-2.816v-2h4zm-46-21h12v2c0 .5522847-.4477153 1-1 1h-10c-.5522847 0-1-.4477153-1-1zm15-7c0-2.7614237 2.2385763-5 5-5s5 2.2385763 5 5-2.2385763 5-5 5c-2.7600532-.0033061-4.9966939-2.2399468-5-5zm22.711 15.681c-.9373878-1.0683343-2.289721-1.68086-3.711-1.68086s-2.7736122.6125257-3.711 1.68086c-.1813346-.1807076-.2850183-.4250281-.289-.681v-3h8v3c-.0039817.2559719-.1076654.5002924-.289.681zm-3.711.319c1.6568542 0 3 1.3431458 3 3s-1.3431458 3-3 3-3-1.3431458-3-3 1.3431458-3 3-3zm5-6h-10c-.5522847 0-1-.4477153-1-1v-2h12v2c0 .5522847-.4477153 1-1 1zm9-12v7h-23.11c1.349108-1.3137414 2.1100739-3.116915 2.1100739-5s-.7609659-3.6862586-2.1100739-5h20.11c1.6568542 0 3 1.3431458 3 3zm-6-10h1c.5522847 0 1 .44771525 1 1v4h-3v-4c0-.55228475.4477153-1 1-1zm-3 2v3h-38v-3zm-43-1c0-.55228475.44771525-1 1-1h1c.55228475 0 1 .44771525 1 1v4h-3zm-4 9c0-1.6568542 1.34314575-3 3-3h20.11c-1.349108 1.3137414-2.1100739 3.116915-2.1100739 5s.7609659 3.6862586 2.1100739 5h-23.11z" data-original="#000000" class="active-path" data-old_color="#000000" fill="#FFFFFF"></path> <path id="Shape" d="m8 17c1.65685425 0 3-1.3431458 3-3s-1.34314575-3-3-3-3 1.3431458-3 3 1.34314575 3 3 3zm0-4c.55228475 0 1 .4477153 1 1s-.44771525 1-1 1-1-.4477153-1-1 .44771525-1 1-1z" data-original="#000000" class="active-path" data-old_color="#000000" fill="#FFFFFF"></path> <path id="Shape" d="m17 17c1.6568542 0 3-1.3431458 3-3s-1.3431458-3-3-3-3 1.3431458-3 3 1.3431458 3 3 3zm0-4c.5522847 0 1 .4477153 1 1s-.4477153 1-1 1-1-.4477153-1-1 .4477153-1 1-1z" data-original="#000000" class="active-path" data-old_color="#000000" fill="#FFFFFF"></path> <path id="Shape" d="m43 11c-1.6568542 0-3 1.3431458-3 3s1.3431458 3 3 3 3-1.3431458 3-3-1.3431458-3-3-3zm0 4c-.5522847 0-1-.4477153-1-1s.4477153-1 1-1 1 .4477153 1 1-.4477153 1-1 1z" data-original="#000000" class="active-path" data-old_color="#000000" fill="#FFFFFF"></path> <path id="Shape" d="m52 11c-1.6568542 0-3 1.3431458-3 3s1.3431458 3 3 3 3-1.3431458 3-3-1.3431458-3-3-3zm0 4c-.5522847 0-1-.4477153-1-1s.4477153-1 1-1 1 .4477153 1 1-.4477153 1-1 1z" data-original="#000000" class="active-path" data-old_color="#000000" fill="#FFFFFF"></path> <path id="Shape" d="m30 11c-.5522847 0-1 .4477153-1 1v2c0 .5522847.4477153 1 1 1s1-.4477153 1-1v-2c0-.5522847-.4477153-1-1-1z" data-original="#000000" class="active-path" data-old_color="#000000" fill="#FFFFFF"></path> </g> </g> </g> </svg> 