<?xml version="1.0" encoding="UTF-8"?> <svg xmlns="http://www.w3.org/2000/svg" id="Capa_1" height="512px" viewBox="0 0 512.26 512.26" width="512px"> <g> <g> <path d="m370.119 280.635-34.139 34.139-34.175-34.175 81.996-81.996c9.014 2.538 18.216 3.779 27.366 3.778 26.329-.002 52.179-10.289 71.491-29.601 28.407-28.407 37.288-70.948 22.626-108.378l-8.362-21.348-53.667 53.668-21.669-5.807-5.807-21.67 53.666-53.667-21.345-8.361c-37.427-14.66-79.969-5.78-108.378 22.627-26.023 26.023-35.66 63.906-25.822 98.856l-81.996 81.996-110.109-110.109 29.213-29.212-90.545-71.369-60.463 60.462 71.368 90.546 29.214-29.213 110.109 110.109-72.384 72.384c-37.592-11.776-78.605-1.938-106.9 26.357-20.093 20.093-31.159 46.808-31.159 75.223s11.066 55.13 31.159 75.223c20.739 20.739 47.98 31.108 75.223 31.108 27.242 0 54.484-10.369 75.223-31.108 28.295-28.295 38.133-69.309 26.357-106.9l72.384-72.384 34.175 34.175-34.139 34.139 123.593 123.593c11.952 11.952 27.843 18.534 44.746 18.534 16.902 0 32.793-6.582 44.745-18.534 24.672-24.673 24.672-64.817 0-89.49zm-330.056-217.802 22.765-22.765 43.093 33.967-31.891 31.891zm308.546 73.584-3.58-9.139c-10.313-26.326-4.07-56.245 15.906-76.222 13.859-13.858 32.497-21.103 51.412-20.805l-30.028 30.029 14.772 55.129 55.13 14.773 30.027-30.028c.303 18.91-6.946 37.554-20.804 51.412-19.977 19.975-49.895 26.22-76.222 15.905l-9.138-3.579-95.492 95.492-27.476-27.476zm-175.508 230.46 3.918 9.298c12.126 28.774 5.696 61.632-16.38 83.708-14.893 14.892-34.448 22.337-54.01 22.335-19.557-.001-39.121-7.446-54.01-22.335-14.426-14.427-22.372-33.607-22.372-54.01s7.945-39.583 22.372-54.01c14.67-14.669 34.094-22.429 53.923-22.429 10.012 0 20.13 1.98 29.784 6.049l9.298 3.918 86.279-86.279 27.476 27.476zm197.018-43.817 27.477 27.477-47.064 47.064-27.476-27.476zm102.382 149.447c-6.286 6.285-14.643 9.747-23.532 9.747s-17.247-3.462-23.532-9.747l-53.692-53.692 47.064-47.064 53.692 53.692c12.975 12.975 12.975 34.088 0 47.064z" data-original="#000000" class="active-path" data-old_color="#000000" fill="#FFFFFF"></path> <path d="m106.629 356.444c-13.203 0-25.616 5.142-34.951 14.478-9.336 9.336-14.478 21.748-14.478 34.951s5.142 25.615 14.477 34.951c9.336 9.336 21.749 14.478 34.952 14.478s25.615-5.142 34.952-14.478c19.271-19.272 19.271-50.631 0-69.902-9.336-9.336-21.749-14.478-34.952-14.478zm13.739 63.167c-3.67 3.669-8.549 5.69-13.738 5.69-5.19 0-10.068-2.021-13.738-5.69-3.669-3.67-5.69-8.549-5.69-13.738s2.021-10.068 5.691-13.738c3.669-3.67 8.548-5.69 13.738-5.69 5.189 0 10.068 2.021 13.738 5.69 7.573 7.575 7.573 19.901-.001 27.476z" data-original="#000000" class="active-path" data-old_color="#000000" fill="#FFFFFF"></path> </g> </g> </svg> 